<svg xmlns="http://www.w3.org/2000/svg" xmlns:xlink="http://www.w3.org/1999/xlink" xmlns:fi="http://pattern.flaticon.com/" x="0" y="0" width="700" height="350" viewBox="0 0 700 350"><rect x="0px" y="0px" width="100%" height="100%" opacity="1" fill="#fffef9"/><defs><g transform="matrix(0.1729190506762051 0.04633351998464554 -0.04633351998464554 0.1729190506762051 318.17796085371145 -55.096372431624204)" id="L1_59"><path d="M434.563,175.558c-0.695-1.68-5.984-4.57-20.336-4.57c-8.906,0-21.297,1.109-38.25,4.313   c-38.578,7.281-87.578,22.789-137.969,43.664c-50.391,20.875-96.008,44.555-128.43,66.688   c-37.219,25.398-42.375,38.883-41.25,41.609c1.733,4.199,19.547,7.848,60.63-0.13c-1.195-1.927-2.345-3.885-3.449-5.871   c-0.039-0.07-0.079-0.141-0.118-0.211c-0.462-0.834-0.915-1.674-1.361-2.518c-0.077-0.146-0.154-0.292-0.231-0.438   c-0.417-0.795-0.826-1.595-1.228-2.399c-0.098-0.197-0.196-0.394-0.294-0.591c-0.382-0.772-0.758-1.547-1.126-2.327   c-0.109-0.231-0.217-0.464-0.325-0.696c-0.353-0.758-0.701-1.517-1.041-2.282c-0.114-0.257-0.225-0.515-0.338-0.772   c-0.329-0.753-0.656-1.507-0.973-2.267c-0.003-0.006-0.005-0.012-0.008-0.018c5.518-10.29,33.918-28.665,74.006-48.367   c15.792-7.762,33.396-15.729,52.128-23.488c66.279-27.454,124.41-43.083,139.996-38.382c2.892,7.013,5.251,14.301,7.016,21.819   C426.293,194.911,436.297,179.738,434.563,175.558z" fill="#b68057"/><path d="M395.394,254.246c0.019-0.957,0.036-1.915,0.036-2.876c0-0.786-0.022-1.565-0.035-2.348   c-0.012,0.008-0.023,0.015-0.035,0.022c-0.051-3.104-0.212-6.178-0.464-9.227c0.015-0.01,0.029-0.019,0.044-0.029   c-0.604-7.305-1.758-14.452-3.418-21.405c0.031-0.021,0.061-0.042,0.092-0.063c-1.766-7.518-4.124-14.807-7.016-21.819   c-15.586-4.7-73.717,10.929-139.996,38.382c-18.732,7.759-36.336,15.726-52.128,23.488c-2.248,10.108-3.443,20.613-3.443,31.398   c0,41.168,17.304,78.272,45.001,104.516c-25.063-3.021-48.141-12.482-67.54-26.67c-0.012,0.003-0.024,0.006-0.036,0.009   c23.819,17.44,53.191,27.745,84.975,27.745c72.008,0,131.67-52.855,142.31-121.885c-0.067,0.041-0.133,0.082-0.201,0.122   C394.526,267.263,395.231,260.825,395.394,254.246z" fill="#ffd042"/><path d="M336.357,135.08c-13.912-10.177-29.717-17.917-46.79-22.595   c17.057,4.682,32.842,12.433,46.744,22.606C336.326,135.087,336.341,135.083,336.357,135.08z" fill="#ffd042"/><path d="M128.965,327.129c-1.196-1.927-2.35-3.883-3.456-5.87c1.105,1.987,2.255,3.944,3.449,5.871   C128.961,327.13,128.963,327.13,128.965,327.129z" fill="#ffd042"/><path d="M189.031,289.77c0-10.785,1.195-21.29,3.443-31.398c-40.088,19.702-68.488,38.078-74.006,48.367   c0.003,0.006,0.005,0.012,0.008,0.018c0.317,0.76,0.643,1.514,0.973,2.267c0.113,0.257,0.224,0.516,0.338,0.772   c0.34,0.765,0.688,1.525,1.041,2.282c0.108,0.232,0.215,0.464,0.325,0.696c0.368,0.78,0.744,1.555,1.126,2.327   c0.098,0.197,0.196,0.394,0.294,0.591c0.402,0.804,0.811,1.604,1.228,2.399c0.076,0.146,0.154,0.292,0.231,0.438   c0.446,0.844,0.899,1.684,1.361,2.518c0.039,0.071,0.079,0.141,0.118,0.211c1.106,1.987,2.26,3.943,3.456,5.87   c0.052-0.01,0.101-0.019,0.153-0.029c3.776,6.088,7.995,11.867,12.604,17.303c0.059-0.012,0.117-0.024,0.177-0.037   c1.97,2.32,3.965,4.608,6.075,6.797c-0.04,0.009-0.078,0.017-0.118,0.025c5.762,5.985,12.032,11.477,18.751,16.399   c-0.039,0.01-0.076,0.018-0.115,0.028c19.399,14.188,42.477,23.649,67.54,26.67C206.335,368.042,189.031,330.938,189.031,289.77z" fill="#dbb246"/><path d="M336.311,135.091c-13.902-10.173-29.687-17.924-46.744-22.606c-0.047-0.013-0.094-0.025-0.141-0.038   c-1.032-0.282-2.069-0.553-3.111-0.813c-0.125-0.031-0.25-0.061-0.374-0.091c-0.973-0.24-1.949-0.47-2.929-0.69   c-0.197-0.044-0.394-0.085-0.591-0.128c-0.917-0.202-1.837-0.396-2.761-0.58c-0.266-0.053-0.533-0.102-0.799-0.153   c-0.862-0.167-1.725-0.329-2.592-0.479c-0.337-0.059-0.676-0.112-1.013-0.168c-0.807-0.135-1.615-0.267-2.427-0.388   c-0.4-0.06-0.802-0.112-1.202-0.168c-0.757-0.106-1.515-0.213-2.276-0.308c-0.467-0.058-0.936-0.107-1.404-0.161   c-0.703-0.08-1.404-0.163-2.11-0.233c-0.539-0.054-1.08-0.096-1.62-0.144c-0.644-0.057-1.287-0.118-1.934-0.166   c-0.622-0.046-1.247-0.08-1.871-0.118c-0.571-0.035-1.14-0.076-1.713-0.105c-0.755-0.038-1.514-0.06-2.272-0.086   c-0.449-0.015-0.897-0.038-1.347-0.05c-1.213-0.03-2.429-0.046-3.649-0.046c-72.03,0-131.706,52.886-142.32,121.946   c33.467-20.203,71.687-39.286,110.289-55.274C259.584,157.396,299.477,144.157,336.311,135.091z" fill="#dbb246"/><path d="M500.446,148.229v-0.004c-9.359-22.59-43.781-31.23-99.531-25.031   c-19.884,2.215-41.629,6.243-64.558,11.885c-0.015,0.004-0.031,0.008-0.046,0.011c-36.833,9.066-76.726,22.305-116.911,38.951   c-38.602,15.988-76.822,35.071-110.289,55.274C37.917,272.293-11.737,320.347,2.415,354.518   c7.398,17.844,31.414,26.914,68.148,26.914c26.028,0,58.493-4.599,95.893-13.807c0.012-0.003,0.024-0.006,0.036-0.009   c0.039-0.01,0.076-0.018,0.115-0.028c-6.719-4.922-12.989-10.414-18.751-16.399c-27.116,5.97-51.087,9.111-70.179,9.111   c-25.144,0-41.901-5.37-46.548-16.627c-13.104-31.747,75.128-98.287,197.071-148.621c78.701-32.485,152.217-50.281,197.977-50.283   c0.003,0,0.009,0,0.009,0v0v0c25.139,0,41.893,5.371,46.539,16.627c8.173,19.799-23.077,53.132-77.33,87.626   c0.013,0.782,0.035,1.562,0.035,2.348c0,0.962-0.013,1.921-0.036,2.876c-0.163,6.579-0.868,13.017-1.854,19.361   c0.068-0.041,0.133-0.082,0.201-0.122C473.159,225.421,513.054,178.686,500.446,148.229z" fill="#d49e6c"/><path d="M231.253,202.447C99.035,257.022,29.891,319.706,38.524,340.621   c3.063,7.422,17.334,11.68,39.153,11.68c17.928,0,39.741-2.764,64.045-7.897c-4.61-5.436-8.828-11.216-12.604-17.303   c-0.052,0.01-0.101,0.019-0.153,0.029c-0.002,0-0.004,0.001-0.006,0.001c-41.083,7.978-58.897,4.329-60.63,0.13   c-1.125-2.727,4.031-16.211,41.25-41.609c32.422-22.133,78.039-45.813,128.43-66.688c50.391-20.875,99.39-36.383,137.969-43.664   c16.953-3.203,29.344-4.313,38.25-4.313c14.352,0,19.641,2.891,20.336,4.57c1.733,4.18-8.271,19.353-42.949,42.764   c-0.031,0.021-0.061,0.042-0.092,0.063c1.66,6.953,2.814,14.1,3.418,21.405c51.099-33.256,75.75-62.353,70.39-75.34   c-3.063-7.422-17.331-11.68-39.144-11.68v-8l-0.008,8C379.478,152.771,306.609,171.343,231.253,202.447z" fill="#d49e6c"/><path d="M141.899,344.367c-0.059,0.013-0.117,0.024-0.177,0.037c-24.305,5.134-46.117,7.897-64.045,7.897   c-21.818,0-36.089-4.257-39.153-11.68c-8.633-20.915,60.511-83.599,192.729-138.174c75.356-31.104,148.225-49.676,194.925-49.678   l0.008-8c0,0-0.006,0-0.009,0c-45.76,0.002-119.276,17.798-197.977,50.283C106.257,245.387,18.025,311.927,31.129,343.674   c4.647,11.258,21.404,16.627,46.548,16.627c19.092,0,43.063-3.141,70.179-9.111c0.04-0.009,0.078-0.017,0.118-0.025   C145.864,348.975,143.869,346.687,141.899,344.367z" fill="#b68057"/><path d="M465.33,164.449c5.361,12.987-19.291,42.084-70.39,75.34c-0.015,0.01-0.029,0.019-0.044,0.029   c0.252,3.049,0.413,6.124,0.464,9.227c0.012-0.007,0.023-0.015,0.035-0.022c54.253-34.494,85.502-67.827,77.33-87.626   c-4.646-11.256-21.4-16.627-46.539-16.627v8C447.999,152.769,462.267,157.026,465.33,164.449z" fill="#b68057"/></g><g transform="matrix(0.0390625 0 0 0.0390625 77.5 339)" id="L1_60"><path d="M264,116 264,100 256,100 248,100 248,116 256,116z" fill="#5c546a"/><path d="M256,180h31.438c0.188,0,0.375,0.013,0.563,0.018V164h-32h-32v16.018   c0.188-0.004,0.374-0.018,0.563-0.018H256z" fill="#5c546a"/><path d="M209,372l5.248,41.984c1.001,8.007,7.807,14.016,15.876,14.016H256v-56H209z" fill="#5c546a"/><path d="M256,428h25.875c8.069,0,14.875-6.009,15.876-14.016L303,372h-47V428z" fill="#888693"/><path d="M0,284v32c0,4.418,3.582,8,8,8h24v-40H0z" fill="#5c546a"/><path d="M32,228H8c-4.418,0-8,3.582-8,8v32h32V228z" fill="#5c546a"/><rect x="48px" y="284px" width="32px" height="40px" fill="#5c546a"/><path d="M144,324h24c4.418,0,8-3.582,8-8v-32h-32V324z" fill="#5c546a"/><path d="M176,268v-32c0-4.418-3.582-8-8-8h-24v40H176z" fill="#5c546a"/><rect x="96px" y="228px" width="32px" height="40px" fill="#5c546a"/><rect x="48px" y="228px" width="32px" height="40px" fill="#5c546a"/><rect x="96px" y="284px" width="32px" height="40px" fill="#5c546a"/><path d="M176,268 144,268 144,228 128,228 128,268 96,268 96,228 80,228 80,268 48,268 48,228    32,228 32,268 0,268 0,284 32,284 32,324 48,324 48,284 80,284 80,324 96,324 96,284 128,284 128,324 144,324 144,284 176,284    192,284 192,268z" fill="#888693"/><rect x="384px" y="284px" width="32px" height="40px" fill="#5c546a"/><path d="M368,228h-24c-4.418,0-8,3.582-8,8v32h32V228z" fill="#5c546a"/><path d="M336,284v32c0,4.418,3.582,8,8,8h24v-40H336z" fill="#5c546a"/><path d="M480,324h24c4.418,0,8-3.582,8-8v-32h-32V324z" fill="#5c546a"/><rect x="432px" y="284px" width="32px" height="40px" fill="#5c546a"/><path d="M504,228h-24v40h32v-32C512,231.581,508.418,228,504,228z" fill="#5c546a"/><rect x="432px" y="228px" width="32px" height="40px" fill="#5c546a"/><rect x="384px" y="228px" width="32px" height="40px" fill="#5c546a"/><path d="M480,228 464,228 464,268 432,268 432,228 416,228 416,268 384,268 384,228 368,228 368,268    336,268 320,268 320,284 336,284 368,284 368,324 384,324 384,284 416,284 416,324 432,324 432,284 464,284 464,324 480,324    480,284 512,284 512,268 480,268z" fill="#888693"/><path d="M256,364v-48h-16v39c0,0.552-0.448,1-1,1h-14c-0.552,0-1-0.448-1-1v-39h-8c-4.418,0-8-3.582-8-8v-32   c0-4.418,3.582-8,8-8h8v-39c0-0.552,0.448-1,1-1h14c0.552,0,1,0.448,1,1v39h16v-56h-64v56v16v80c0,4.418,3.578,8,8,8h9h47V364z" fill="#ff9300"/><path d="M320,212h-64v56h16v-39c0-0.552,0.448-1,1-1h14c0.552,0,1,0.448,1,1v39h8c4.418,0,8,3.582,8,8v32   c0,0.276-0.014,0.549-0.041,0.818c-0.041,0.407-0.122,0.802-0.223,1.188c-0.05,0.192-0.104,0.383-0.168,0.569   c-0.789,2.319-2.611,4.155-4.92,4.966c-0.83,0.292-1.719,0.458-2.648,0.458h-8v39c0,0.552-0.448,1-1,1h-14c-0.552,0-1-0.448-1-1   v-39h-16v48v8h47h9c4.422,0,8-3.582,8-8v-80v-16V212z" fill="#ffcf00"/><path d="M256,180h-31.437c-0.188,0-0.375,0.013-0.563,0.018c-7.823,0.182-15.05,4.135-19.406,10.67   l-11.25,16.875C192.469,208.875,192,210.422,192,212h64V180z" fill="#888693"/><path d="M256,180v32h64c0-1.578-0.469-3.125-1.344-4.438l-11.25-16.875   c-4.356-6.535-11.583-10.488-19.406-10.67c-0.188-0.004-0.374-0.018-0.563-0.018H256z" fill="#b6b8be"/><path d="M256,116h-8h-6.461c-2.031,0-4.023,0.383-5.938,1.145l-33.539,13.414   c-6.109,2.445-10.063,8.277-10.063,14.859V156c0,4.418,3.578,8,8,8h24h32V116z" fill="#888693"/><path d="M224,268h-8c-4.418,0-8,3.582-8,8v32c0,4.418,3.582,8,8,8h8h16h16v-48h-16H224z" fill="#b6b8be"/><path d="M264,100h8c4.422,0,8-3.582,8-8s-3.578-8-8-8h-16v16H264z" fill="#ffcf00"/><path d="M256,164h32h24c4.422,0,8-3.582,8-8v-10.582c0-6.582-3.953-12.414-10.063-14.855l-33.555-13.43   c-1.898-0.75-3.891-1.133-5.922-1.133H264h-8V164z" fill="#b6b8be"/><path d="M256,84h-16c-4.422,0-8,3.582-8,8s3.578,8,8,8h8h8V84z" fill="#ff9300"/><path d="M272,316h16h8c0.93,0,1.818-0.167,2.648-0.458c2.309-0.811,4.131-2.646,4.92-4.966   c0.064-0.187,0.118-0.377,0.168-0.569c0.1-0.387,0.181-0.781,0.223-1.188c0.027-0.269,0.041-0.542,0.041-0.818v-32   c0-4.418-3.582-8-8-8h-8h-16h-16v48H272z" fill="#d5d9de"/><path d="M240,229c0-0.552-0.448-1-1-1h-14c-0.552,0-1,0.448-1,1v39h16V229z" fill="#5c546a"/><path d="M224,355c0,0.552,0.448,1,1,1h14c0.552,0,1-0.448,1-1v-39h-16V355z" fill="#5c546a"/><path d="M288,229c0-0.552-0.448-1-1-1h-14c-0.552,0-1,0.448-1,1v39h16V229z" fill="#888693"/><path d="M272,355c0,0.552,0.448,1,1,1h14c0.552,0,1-0.448,1-1v-39h-16V355z" fill="#888693"/></g><g transform="matrix(0.0390625 0 0 0.0390625 252.5 340)" id="L1_62"><path d="M264,445.93V352V232c0-4.418-3.582-8-8-8c-4.418,0-8,3.582-8,8v120v93.93h-25.391   c-2.293,0-4.509-0.322-6.609-0.915v24.915c0,4.422,3.578,8,8,8h24V504c0,4.418,3.582,8,8,8c4.418,0,8-3.582,8-8v-26.07h24   c4.422,0,8-3.578,8-8v-24.915c-2.101,0.593-4.317,0.915-6.609,0.915H264z" fill="#5c546a"/><path d="M439.89,500.617l-20.148-120.914c-2.727-16.359-9.43-32.023-19.391-45.297L320,227.269V349.93   l-6.13,67.747L427,508.179c1.453,1.156,3.227,1.75,5,1.75c1.391,0,2.789-0.359,4.047-1.102   C438.906,507.148,440.437,503.883,439.89,500.617z" fill="#5c546a"/><path d="M192.153,352l-0.122-1.344l-0.017-123.407l-80.366,107.157   c-9.961,13.273-16.664,28.937-19.391,45.297L72.109,500.617c-0.547,3.266,0.984,6.531,3.844,8.211   c1.258,0.742,2.656,1.102,4.047,1.102c1.773,0,3.547-0.594,5-1.75l113.127-90.501L192.153,352L192.153,352z" fill="#5c546a"/><path d="M320,227.269V125.93c0-44.911-26.015-89.408-42.771-113.401   c8.448,12.104,19.231,29.443,27.868,49.399H256V103c17.081,0,30.928,13.847,30.928,30.928c0,17.081-13.847,30.928-30.928,30.928   V224c4.418,0,8,3.582,8,8v120h55.812l-6.523,72.102l0.581-6.425L320,349.93V227.269z" fill="#ff4f19"/><path d="M192.153,352H248V232c0-4.418,3.582-8,8-8v-59.143c-17.081,0-30.928-13.847-30.928-30.928   C225.072,116.847,238.919,103,256,103V61.928h-49.097c8.636-19.956,19.419-37.295,27.868-49.399   C218.015,36.521,192,81.019,192,125.93l0.014,101.32l0.017,123.407L192.153,352z" fill="#e5001e"/><path d="M319.813,352H264v93.93h25.391c2.293,0,4.509-0.322,6.609-0.915   c9.344-2.638,16.364-10.752,17.289-20.913L319.813,352z" fill="#b6b8be"/><path d="M248,445.93V352h-55.847l0,0l0,0l5.973,65.678l0.584,6.423c0.925,10.161,7.945,18.275,17.289,20.913   c2.101,0.593,4.316,0.915,6.609,0.915H248z" fill="#888693"/><circle cx="256" cy="133" r="30" fill="#5c546a"/><path d="M256,61.928V0c-7.711,0-14.992,3.758-19.484,10.055c-0.539,0.755-1.089,1.534-1.649,2.337   c-0.031,0.045-0.064,0.093-0.095,0.137c-8.448,12.104-19.231,29.443-27.868,49.399H256z" fill="#5c546a"/><path d="M305.097,61.928c-8.636-19.956-19.42-37.295-27.868-49.399c-0.031-0.045-0.064-0.093-0.095-0.137   c-0.561-0.802-1.111-1.582-1.649-2.337C270.992,3.758,263.711,0,256,0v61.928H305.097z" fill="#888693"/></g><g transform="matrix(0.07812561094760895 0 0 0.07812561094760895 67.5 67.5)" id="L1_63"><path d="M263.998,141.006v-17.008c0-4.422-3.578-8-8-8c-4.422,0-8,3.578-8,8v17.008   c2.557-0.658,5.238-1.008,8-1.008C258.76,139.998,261.441,140.348,263.998,141.006z" fill="#52798f"/><path d="M255.998,163.998h21.438h9.554c-2.894-11.245-11.747-20.098-22.992-22.992   c-2.557-0.658-5.238-1.008-8-1.008c-2.762,0-5.443,0.35-8,1.008c-11.245,2.894-20.098,11.747-22.992,22.992h9.554H255.998z" fill="#5c546a"/><path d="M380.279,259.998l-52.125-78.187c-7.437-11.156-19.875-17.812-33.281-17.812h-1.109l31.997,96   H380.279z" fill="#00e389"/><path d="M277.748,166.529c-0.28-0.841-0.313-1.691-0.312-2.531h-21.438v96h52.904L277.748,166.529z" fill="#00e389"/><path d="M218.233,163.998h-1.109c-13.406,0-25.844,6.656-33.281,17.812l-52.125,78.187h54.518   L218.233,163.998z" fill="#00bbbb"/><path d="M255.998,163.998H234.56c0,0.84-0.032,1.69-0.312,2.531l-31.154,93.469h52.904V163.998z" fill="#00bbbb"/><path d="M277.748,166.529l31.154,93.469h16.859l-31.997-96h-6.774h-9.554   C277.436,164.838,277.468,165.688,277.748,166.529z" fill="#00bbbb"/><path d="M203.094,259.998l31.154-93.469c0.28-0.841,0.313-1.691,0.312-2.531h-9.554h-6.774l-31.998,96   H203.094z" fill="#52798f"/><path d="M127.998,347.998c-0.695,0-1.391-0.094-2.063-0.273l-2.466-0.657l33.583,40.29   c4.57,5.492,11.297,8.641,18.438,8.641h80.508v-48H127.998z" fill="#5c546a"/><path d="M383.998,347.998h-128v48h80.508c7.141,0,13.867-3.148,18.438-8.633l33.583-40.298l-2.466,0.658   C385.389,347.904,384.693,347.998,383.998,347.998z" fill="#52798f"/><path d="M511.224,304.568c-0.867-1.82-22.195-44.57-111.227-44.57h-19.719h-54.518h-16.859h-52.904v16v32   h255.989c0,1.146-0.237,2.294-0.731,3.359C512.256,309.201,512.24,306.709,511.224,304.568z" fill="#e3e6e9"/><path d="M255.998,307.998v-32v-16h-52.904h-16.859h-54.518h-19.719c-89.031,0-110.359,42.75-111.227,44.57   c-1.016,2.141-1.031,4.633-0.031,6.789c-0.494-1.065-0.731-2.213-0.731-3.359H255.998z" fill="#b6b8be"/><path d="M127.998,347.998h128v-16v-24H0.009c0,1.146,0.237,2.294,0.731,3.359   c0.992,2.156,2.898,3.758,5.195,4.367l117.534,31.343l2.466,0.657C126.608,347.904,127.303,347.998,127.998,347.998z" fill="#888693"/><path d="M255.998,307.998v24v16h128c0.695,0,1.391-0.094,2.063-0.273l2.466-0.658l117.534-31.342   c2.297-0.609,4.203-2.211,5.195-4.367c0.494-1.065,0.731-2.213,0.731-3.359H255.998z" fill="#b6b8be"/></g><g transform="matrix(0.0833333358168602 0 0 0.0833333358168602 242.5 67.5)" id="L1_64"><path d="M303.561,8.525c38.557,10.583,73.23,30.554,101.437,57.281C395.485,64.659,385.822,64,376,64   c-124.27,0-226.479,94.448-238.762,215.477h0c-0.003,0.032-0.006,0.065-0.009,0.097c-0.001,0.014-0.002,0.028-0.004,0.042   C168.915,285.105,204.253,288,240,288c41.859,0,82.789-3.922,118.367-11.344c14.039-2.938,27.203-6.406,39.141-10.328   c4.195-1.391,8.711,0.906,10.094,5.109c1.375,4.195-0.906,8.711-5.109,10.094c-7.778,2.554-16.087,4.897-24.746,7.059   c-0.101,0.083-0.148,0.205-0.254,0.285l-15.656,11.742l16.289,4.492c3.508,0.969,5.922,4.172,5.875,7.805   c-0.047,3.641-2.531,6.789-6.063,7.664C337.57,330.672,289.867,336,240,336c-3.523,0-6.633-2.305-7.656-5.68   s0.289-7.023,3.219-8.977c2.563-1.711,2.469-4.25,2.313-5.258c-0.156-1.016-0.844-3.469-3.813-4.313l-43.789-9.68   c-0.065-0.015-0.112-0.062-0.177-0.078c-18.638-1.396-36.801-3.486-53.936-6.363c-0.095,2.772-0.16,5.552-0.16,8.348   c0,54.205,18.011,104.173,48.33,144.339c18.574-8.458,37.683-17.042,56.006-16.331c28.82,1.266,43.547-6.867,43.688-6.953   c3.828-2.133,8.711-0.82,10.891,2.984c2.18,3.813,0.914,8.656-2.883,10.867c-0.734,0.438-18.305,10.547-52.367,9.086   c-13.441-0.686-29.28,6.086-44.936,13.195c0,0,0.001,0.001,0.002,0.002c-0.001,0.001-0.002,0.001-0.004,0.002   c5.148,5.928,10.579,11.605,16.276,17.003c-12.859-1.55-25.402-4.12-37.553-7.619c-0.001,0-0.003,0.001-0.004,0.002   c-0.035-0.01-0.07-0.022-0.105-0.032c-2.008-0.579-4.005-1.186-5.992-1.816c-1.236-0.389-2.461-0.801-3.688-1.208   c-0.474-0.159-0.949-0.314-1.421-0.475c-5.38-1.822-10.685-3.803-15.878-6.005c0.055,0.002,0.115-0.003,0.171-0.002   c-49.475-20.934-90.472-57.971-116.398-104.552C71.109,430.151,149.727,480,240,480c132.548,0,240-107.452,240-240   C480,129.458,405.259,36.388,303.561,8.525z M272,232c-0.258,0.016-0.68-0.008-1.023-0.008c-11.43,0-18.469,3.594-26.594,7.742   c-8.633,4.406-18.18,9.281-32.875,9.281c-3.891,0-8.133-0.344-12.82-1.125c-4.359-0.727-7.305-4.852-6.578-9.203   c0.719-4.359,4.828-7.352,9.203-6.578c17.211,2.852,25.813-1.531,35.797-6.625c8.938-4.57,18.742-9.945,35.023-9.484   c4.414,0.07,7.938,3.711,7.867,8.133C279.93,228.5,276.359,232,272,232z M334.289,220.945c-7.18,9.141-24.672,10.766-29.859,11.047   C304.281,232,304.141,232,303.992,232c-4.219,0-7.742-3.297-7.977-7.563c-0.242-4.406,3.133-8.18,7.539-8.422   c7.672-0.438,16.492-2.844,18.156-4.961c2.727-3.469,7.75-4.086,11.234-1.344C336.414,212.437,337.023,217.469,334.289,220.945z    M205.68,333.601c-1.523,1.516-3.602,2.398-5.68,2.398s-4.164-0.883-5.68-2.32c-1.445-1.523-2.32-3.602-2.32-5.68   s0.875-4.164,2.32-5.68c2.961-2.961,8.32-2.961,11.359,0c1.516,1.516,2.32,3.602,2.32,5.68S207.195,332.156,205.68,333.601z    M309.679,373.601c-1.523,1.516-3.602,2.398-5.68,2.398c-2.078,0-4.164-0.883-5.68-2.32c-1.445-1.523-2.32-3.602-2.32-5.68   s0.875-4.164,2.32-5.68c2.961-2.961,8.32-2.961,11.359,0c1.516,1.516,2.32,3.602,2.32,5.68S311.195,372.156,309.679,373.601z    M373.679,197.502c-1.523,1.516-3.602,2.398-5.68,2.398s-4.164-0.883-5.68-2.32c-1.445-1.523-2.32-3.602-2.32-5.68   s0.875-4.164,2.32-5.68c2.961-2.961,8.32-2.961,11.359,0c1.516,1.516,2.32,3.602,2.32,5.68S375.195,196.057,373.679,197.502z    M405.679,229.601c-1.523,1.516-3.602,2.398-5.68,2.398s-4.164-0.883-5.68-2.32c-1.445-1.523-2.32-3.602-2.32-5.68   s0.875-4.164,2.32-5.68c2.961-2.961,8.32-2.961,11.359,0c1.516,1.516,2.32,3.602,2.32,5.68S407.195,228.156,405.679,229.601z    M369.773,130.531c-0.602,0.141-1.195,0.203-1.789,0.203c-3.648,0-6.945-2.508-7.789-6.219c-0.984-4.305,1.703-8.594,6.016-9.578   c24.808-5.672,46.328-12.667,64.396-20.713c3.315,4.328,6.492,8.763,9.511,13.315C420.515,116.577,396.919,124.331,369.773,130.531   z" fill="#ff4f19"/><path d="M14.108,321.229c-1.555-4.322-2.983-8.703-4.293-13.136   C11.125,312.525,12.554,316.907,14.108,321.229z" fill="#ff4f19"/><path d="M146.532,461.038c-0.055-0.001-0.116,0.004-0.171,0.002c5.193,2.203,10.499,4.183,15.878,6.005   c0.472,0.162,0.948,0.317,1.421,0.475c1.227,0.407,2.452,0.819,3.688,1.208c1.986,0.63,3.983,1.236,5.992,1.816   c0.035,0.01,0.07,0.022,0.105,0.032c0.001,0,0.003-0.001,0.004-0.002c12.15,3.499,24.694,6.069,37.553,7.619   c-5.697-5.398-11.128-11.075-16.276-17.003c-1.46,0.663-2.921,1.326-4.375,1.989c-5.725,2.606-11.35,5.158-16.817,7.36   c-0.763-0.219-1.527-0.437-2.288-0.663c-2.699-0.804-5.369-1.67-8.03-2.559c-1.713-0.578-3.439-1.131-5.135-1.747   c-1.86-0.668-3.681-1.418-5.519-2.133c-2.014-0.789-4.034-1.565-6.021-2.406c9.272,0.228,23.412-6.149,37.177-12.414   c0.22-0.1,0.441-0.2,0.662-0.3c3.32,4.398,6.74,8.715,10.348,12.87c15.656-7.109,31.495-13.881,44.936-13.195   c34.063,1.461,51.633-8.648,52.367-9.086c3.797-2.211,5.063-7.055,2.883-10.867c-2.18-3.805-7.063-5.117-10.891-2.984   c-0.141,0.086-14.867,8.219-43.688,6.953c-18.323-0.711-37.432,7.873-56.006,16.331C154.011,408.173,136,358.205,136,304   c0-2.796,0.065-5.575,0.16-8.348c17.136,2.878,35.298,4.968,53.936,6.363c0.065,0.016,0.111,0.063,0.177,0.078l43.789,9.68   c2.969,0.844,3.656,3.297,3.813,4.313c0.156,1.008,0.25,3.547-2.313,5.258c-2.93,1.953-4.242,5.602-3.219,8.977   S236.476,336,240,336c49.867,0,97.57-5.328,137.937-15.422c3.531-0.875,6.016-4.023,6.063-7.664   c0.047-3.633-2.367-6.836-5.875-7.805l-16.289-4.492l15.656-11.742c0.106-0.08,0.153-0.201,0.254-0.285   c8.658-2.162,16.968-4.505,24.746-7.059c4.203-1.383,6.484-5.898,5.109-10.094c-1.383-4.203-5.898-6.5-10.094-5.109   c-11.938,3.922-25.102,7.391-39.141,10.328C322.789,284.078,281.859,288,240,288c-35.747,0-71.085-2.895-102.775-8.384   c0.001-0.014,0.002-0.028,0.004-0.042c-0.534,5.292-0.831,10.651-1.017,16.039c-3.252-0.546-6.532-1.072-9.705-1.676   c-4.344-0.828-7.195-5.016-6.367-9.352c0.82-4.344,5.008-7.188,9.352-6.367c2.503,0.477,5.193,0.816,7.745,1.259   C149.521,158.448,251.73,64,376,64c9.822,0,19.485,0.659,28.998,1.806C376.79,39.079,342.118,19.108,303.561,8.525   c-0.079-0.022-0.158-0.043-0.237-0.064c-1.719-0.47-3.447-0.921-5.182-1.353c-0.208-0.052-0.418-0.102-0.627-0.153   c-1.62-0.399-3.246-0.783-4.879-1.149c-0.328-0.074-0.658-0.143-0.986-0.215c-1.528-0.336-3.06-0.66-4.599-0.967   c-0.444-0.088-0.89-0.17-1.334-0.256c-1.437-0.278-2.876-0.548-4.322-0.8c-0.558-0.097-1.12-0.185-1.679-0.278   c-1.347-0.225-2.696-0.446-4.05-0.648c-0.669-0.1-1.342-0.187-2.013-0.282c-1.259-0.177-2.517-0.354-3.782-0.511   c-0.782-0.097-1.57-0.179-2.354-0.269c-1.167-0.134-2.333-0.271-3.506-0.387c-0.901-0.09-1.807-0.161-2.71-0.241   c-1.069-0.094-2.137-0.195-3.21-0.276c-1.036-0.077-2.079-0.134-3.119-0.198c-0.953-0.059-1.904-0.128-2.86-0.175   c-1.244-0.062-2.494-0.099-3.743-0.142c-0.763-0.026-1.523-0.065-2.288-0.084C244.059,0.027,242.033,0,240,0   C134.986,0,45.739,67.453,13.186,161.39c0.463-1.356,0.939-2.706,1.431-4.048c0.176,0.157,0.398,0.225,0.563,0.4   c12.797,13.672,36.086,26.328,67.344,36.594c4.203,1.383,6.484,5.898,5.109,10.094c-1.109,3.375-4.234,5.508-7.602,5.508   c-0.828,0-1.664-0.125-2.492-0.398c-29.783-9.778-53.172-21.912-68.33-35.342c1.216-4.272,2.51-8.51,3.935-12.688   C4.635,186.105,0,212.51,0,240c0,1.997,0.027,3.987,0.076,5.973c0.016,0.669,0.049,1.334,0.07,2.001   c0.043,1.314,0.086,2.628,0.15,3.937c0.039,0.795,0.093,1.585,0.14,2.378c0.069,1.176,0.137,2.351,0.223,3.522   c0.062,0.845,0.137,1.686,0.208,2.529c0.094,1.112,0.187,2.223,0.296,3.33c0.085,0.872,0.181,1.74,0.276,2.609   c0.117,1.071,0.236,2.141,0.367,3.208c0.109,0.889,0.226,1.775,0.345,2.66c0.139,1.037,0.282,2.072,0.434,3.105   c0.133,0.902,0.271,1.802,0.414,2.7c0.16,1.009,0.327,2.015,0.5,3.02c0.157,0.911,0.316,1.821,0.483,2.728   c0.18,0.98,0.37,1.956,0.562,2.932c0.182,0.923,0.364,1.845,0.557,2.764c0.198,0.948,0.408,1.893,0.618,2.837   c0.208,0.935,0.413,1.871,0.632,2.802c0.213,0.907,0.439,1.81,0.662,2.713c0.237,0.961,0.471,1.923,0.72,2.879   c0.217,0.833,0.448,1.66,0.674,2.489c0.277,1.017,0.547,2.036,0.837,3.047c0.185,0.646,0.384,1.286,0.574,1.929   c1.31,4.433,2.738,8.815,4.293,13.136c0.086,0.239,0.167,0.481,0.254,0.72c0.483,1.329,0.986,2.649,1.492,3.967   c0.16,0.418,0.315,0.839,0.477,1.255c0.498,1.276,1.014,2.544,1.533,3.809c0.183,0.445,0.361,0.892,0.546,1.336   c0.528,1.266,1.072,2.523,1.621,3.777c0.187,0.427,0.371,0.856,0.561,1.283c0.567,1.274,1.147,2.541,1.735,3.804   c0.181,0.388,0.36,0.776,0.543,1.163c0.614,1.299,1.24,2.592,1.876,3.878c0.162,0.327,0.324,0.655,0.488,0.981   c0.671,1.342,1.354,2.677,2.05,4.004c0.126,0.241,0.254,0.481,0.381,0.722c0.744,1.407,1.499,2.808,2.269,4.198   c0.067,0.12,0.134,0.239,0.201,0.359C56.061,403.068,97.058,440.104,146.532,461.038z M170.32,74.32   c2.961-2.961,8.32-2.961,11.359,0c1.516,1.516,2.32,3.602,2.32,5.68s-0.805,4.156-2.32,5.602C180.156,87.117,178.078,88,176,88   s-4.164-0.883-5.68-2.32C168.875,84.156,168,82.078,168,80S168.875,75.836,170.32,74.32z M104.835,106.028   c6.196-9.737,17.263-13.784,24.718-9.04c7.455,4.744,8.476,16.483,2.28,26.22s-17.262,13.784-24.718,9.04   S98.639,115.765,104.835,106.028z M55.635,274.818c-1.982-9.17,2.103-17.834,9.124-19.352c7.021-1.518,14.32,4.686,16.302,13.856   s-2.103,17.834-9.124,19.352C64.916,290.191,57.617,283.987,55.635,274.818z" fill="#db3f3d"/><path d="M272.133,216c-16.281-0.461-26.086,4.914-35.023,9.484c-9.984,5.094-18.586,9.477-35.797,6.625   c-4.375-0.773-8.484,2.219-9.203,6.578c-0.727,4.352,2.219,8.477,6.578,9.203c4.688,0.781,8.93,1.125,12.82,1.125   c14.695,0,24.242-4.875,32.875-9.281c8.125-4.148,15.164-7.742,26.594-7.742c0.344,0,0.766,0.023,1.023,0.008   c4.359,0,7.93-3.5,8-7.867C280.07,219.711,276.547,216.07,272.133,216z" fill="#db3f3d"/><path d="M332.945,209.711c-3.484-2.742-8.508-2.125-11.234,1.344c-1.664,2.117-10.484,4.523-18.156,4.961   c-4.406,0.242-7.781,4.016-7.539,8.422c0.234,4.266,3.758,7.563,7.977,7.563c0.148,0,0.289,0,0.438-0.008   c5.187-0.281,22.68-1.906,29.859-11.047C337.023,217.469,336.414,212.437,332.945,209.711z" fill="#db3f3d"/><ellipse cx="118px" cy="114px" rx="20px" ry="16px" transform="matrix(-0.5369 0.8437 -0.8437 -0.5369 278.5632 76.3195)" fill="#a03939"/><ellipse cx="68px" cy="272px" rx="13px" ry="16px" transform="matrix(0.9774 -0.2113 0.2113 0.9774 -55.9416 20.5831)" fill="#a03939"/><path d="M176,88c2.078,0,4.156-0.883,5.68-2.398C183.195,84.156,184,82.078,184,80s-0.805-4.164-2.32-5.68   c-3.039-2.961-8.398-2.961-11.359,0C168.875,75.836,168,77.922,168,80s0.875,4.156,2.32,5.68C171.836,87.117,173.922,88,176,88z" fill="#a03939"/><path d="M362.32,186.221c-1.445,1.516-2.32,3.602-2.32,5.68s0.875,4.156,2.32,5.68   c1.516,1.438,3.602,2.32,5.68,2.32s4.156-0.883,5.68-2.398c1.516-1.445,2.32-3.523,2.32-5.602s-0.805-4.164-2.32-5.68   C370.64,183.26,365.281,183.26,362.32,186.221z" fill="#db3f3d"/><path d="M394.32,218.32c-1.445,1.516-2.32,3.602-2.32,5.68s0.875,4.156,2.32,5.68   c1.516,1.438,3.602,2.32,5.68,2.32s4.156-0.883,5.68-2.398c1.516-1.445,2.32-3.523,2.32-5.602s-0.805-4.164-2.32-5.68   C402.64,215.359,397.281,215.359,394.32,218.32z" fill="#db3f3d"/><path d="M194.32,322.32c-1.445,1.516-2.32,3.602-2.32,5.68s0.875,4.156,2.32,5.68   c1.516,1.438,3.602,2.32,5.68,2.32s4.156-0.883,5.68-2.398c1.516-1.445,2.32-3.523,2.32-5.602s-0.805-4.164-2.32-5.68   C202.641,319.359,197.281,319.359,194.32,322.32z" fill="#db3f3d"/><path d="M298.32,362.32c-1.445,1.516-2.32,3.602-2.32,5.68s0.875,4.156,2.32,5.68   c1.516,1.438,3.602,2.32,5.68,2.32c2.078,0,4.156-0.883,5.68-2.398c1.516-1.445,2.32-3.523,2.32-5.602s-0.805-4.164-2.32-5.68   C306.64,359.359,301.281,359.359,298.32,362.32z" fill="#db3f3d"/><path d="M120.141,284.586c-0.828,4.336,2.023,8.523,6.367,9.352c3.173,0.604,6.453,1.13,9.705,1.676   c0.185-5.388,0.482-10.747,1.017-16.039c0.003-0.032,0.005-0.065,0.009-0.097h0c-2.552-0.443-5.243-0.782-7.745-1.259   C125.148,277.398,120.961,280.242,120.141,284.586z" fill="#a03939"/><path d="M77.539,209.539c0.828,0.273,1.664,0.398,2.492,0.398c3.367,0,6.492-2.133,7.602-5.508   c1.375-4.195-0.906-8.711-5.109-10.094c-31.258-10.266-54.547-22.922-67.344-36.594c-0.164-0.175-0.387-0.243-0.563-0.4   c-0.492,1.342-0.968,2.692-1.431,4.048c-0.014,0.04-0.028,0.079-0.042,0.119c-1.425,4.178-2.719,8.417-3.935,12.688   C24.367,187.627,47.756,199.761,77.539,209.539z" fill="#a03939"/><path d="M184.38,448.317c-0.22,0.1-0.442,0.2-0.662,0.3c-13.765,6.265-27.904,12.642-37.177,12.414   c1.987,0.841,4.007,1.618,6.021,2.406c1.838,0.714,3.659,1.464,5.519,2.133c1.696,0.616,3.421,1.169,5.135,1.747   c2.661,0.889,5.331,1.755,8.03,2.559c0.76,0.227,1.524,0.444,2.288,0.663c5.467-2.202,11.092-4.754,16.817-7.36   c1.454-0.663,2.915-1.326,4.375-1.989c0.001-0.001,0.002-0.001,0.004-0.002c-0.001-0.001-0.001-0.001-0.001-0.001   C191.121,457.032,187.7,452.715,184.38,448.317z" fill="#a03939"/><path d="M430.607,94.224c-18.068,8.047-39.588,15.041-64.396,20.713c-4.313,0.984-7,5.273-6.016,9.578   c0.844,3.711,4.141,6.219,7.789,6.219c0.594,0,1.188-0.063,1.789-0.203c27.146-6.2,50.742-13.954,70.345-22.992   C437.098,102.987,433.922,98.552,430.607,94.224z" fill="#db3f3d"/></g><g transform="matrix(0.1458333283662796 0 0 0.1458333283662796 315 140)" id="L1_65"><path d="M303.561,8.525c38.557,10.583,73.23,30.554,101.437,57.281C395.485,64.659,385.822,64,376,64   c-11.109,0-22.036,0.772-32.743,2.233c0.449,0.587,0.89,1.186,1.311,1.809c9.12,13.473,8.019,30.146-2.46,37.24   c-10.479,7.094-26.368,1.922-35.488-11.551c-3.803-5.618-5.822-11.79-6.132-17.594c-18.17,6.019-35.374,14.151-51.329,24.104   C253.44,105.681,256,112.539,256,120c0,17.673-14.327,32-32,32c-9.635,0-18.268-4.264-24.135-11.001   C160.234,183.802,136,241.067,136,304c0,68.614,28.84,130.454,75.002,174.194c-77.915-9.391-144.343-56.085-180.868-121.708   C71.109,430.151,149.727,480,240,480c132.548,0,240-107.452,240-240C480,129.458,405.259,36.388,303.561,8.525z M186.32,186.32   c3.039-2.961,8.32-2.961,11.359,0c1.438,1.52,2.32,3.598,2.32,5.68c0,2.078-0.883,4.16-2.32,5.68   c-1.523,1.438-3.602,2.32-5.68,2.32s-4.164-0.883-5.68-2.32c-1.445-1.52-2.32-3.602-2.32-5.68   C184,189.84,184.875,187.84,186.32,186.32z M181.68,389.679c-1.523,1.438-3.602,2.32-5.68,2.32s-4.164-0.883-5.68-2.32   c-1.445-1.52-2.32-3.602-2.32-5.68c0-2.082,0.875-4.16,2.32-5.68c3.039-2.961,8.32-2.961,11.359,0c1.438,1.52,2.32,3.598,2.32,5.68   C184,386.078,183.117,388.16,181.68,389.679z M184,300c0-24.3,19.699-44,44-44c24.3,0,44,19.699,44,44c0,24.301-19.699,44-44,44   C203.699,344,184,324.301,184,300z M268.277,438.911c-19.656,5.263-38.845-2.626-42.861-17.622   c-4.016-14.996,8.663-31.419,28.319-36.683c19.656-5.263,38.845,2.626,42.861,17.622S287.933,433.647,268.277,438.911z    M325.68,293.68c-1.523,1.438-3.602,2.32-5.68,2.32s-4.164-0.883-5.68-2.32c-1.445-1.52-2.32-3.602-2.32-5.68   c0-2.082,0.875-4.16,2.32-5.68c3.039-2.961,8.32-2.961,11.359,0c1.438,1.52,2.32,3.598,2.32,5.68   C328,290.078,327.117,292.16,325.68,293.68z M312,216c-13.255,0-24-10.745-24-24s10.745-24,24-24s24,10.745,24,24   S325.255,216,312,216z M378.398,146.32c2.797-2.883,8.242-2.961,11.281,0c1.438,1.52,2.32,3.598,2.32,5.68   c0,2.078-0.883,4.16-2.32,5.68c-1.523,1.438-3.602,2.32-5.68,2.32c-2.164,0-4.164-0.883-5.68-2.32   c-1.445-1.52-2.32-3.602-2.32-5.68C376,149.84,376.875,147.84,378.398,146.32z M383.856,352.573   c-8.994,8.994-21.755,10.817-28.5,4.071c-6.746-6.746-4.923-19.506,4.071-28.5c8.995-8.994,21.755-10.817,28.5-4.072   S392.85,343.578,383.856,352.573z M388.289,267.636c-12.304-2.028-20.085-16.971-17.381-33.376   c2.704-16.405,14.871-28.059,27.174-26.031s20.085,16.971,17.381,33.376C412.759,258.01,400.592,269.664,388.289,267.636z" fill="#ffedb9"/><path d="M14.108,321.229c-1.555-4.322-2.983-8.704-4.293-13.136   C11.125,312.526,12.554,316.907,14.108,321.229z" fill="#ffedb9"/><path d="M211.002,478.194C164.84,434.454,136,372.614,136,304c0-62.933,24.234-120.197,63.865-163   C205.732,147.736,214.365,152,224,152c17.673,0,32-14.327,32-32c0-7.461-2.56-14.319-6.841-19.761   c15.954-9.953,33.158-18.085,51.329-24.104c0.31,5.804,2.329,11.977,6.132,17.594c9.12,13.473,25.009,18.645,35.488,11.551   c10.479-7.094,11.581-23.766,2.46-37.24c-0.422-0.623-0.862-1.222-1.311-1.809C353.964,64.772,364.891,64,376,64   c9.822,0,19.485,0.659,28.998,1.806c-28.207-26.727-62.88-46.698-101.437-57.281c-0.079-0.022-0.158-0.043-0.237-0.064   c-1.72-0.47-3.447-0.921-5.182-1.353c-0.209-0.052-0.418-0.102-0.627-0.153c-1.62-0.399-3.246-0.783-4.879-1.149   c-0.328-0.073-0.658-0.143-0.986-0.215c-1.528-0.336-3.06-0.66-4.599-0.967c-0.444-0.088-0.89-0.17-1.334-0.256   c-1.437-0.278-2.876-0.548-4.322-0.8c-0.558-0.097-1.12-0.185-1.679-0.278c-1.347-0.225-2.696-0.446-4.05-0.648   c-0.669-0.1-1.342-0.187-2.013-0.282c-1.259-0.177-2.517-0.354-3.782-0.511c-0.783-0.097-1.57-0.179-2.355-0.269   c-1.167-0.134-2.333-0.271-3.506-0.387c-0.901-0.09-1.807-0.161-2.71-0.241c-1.069-0.094-2.137-0.195-3.21-0.275   c-1.036-0.077-2.079-0.134-3.119-0.198c-0.953-0.059-1.904-0.127-2.86-0.175c-1.244-0.062-2.494-0.099-3.743-0.142   c-0.763-0.026-1.523-0.065-2.288-0.084C244.059,0.027,242.033,0,240,0C107.452,0,0,107.452,0,240c0,1.997,0.027,3.988,0.076,5.973   c0.016,0.669,0.049,1.334,0.07,2.001c0.043,1.314,0.086,2.628,0.15,3.937c0.039,0.795,0.093,1.585,0.14,2.378   c0.069,1.176,0.137,2.351,0.223,3.522c0.062,0.845,0.137,1.686,0.208,2.529c0.093,1.112,0.187,2.223,0.296,3.33   c0.085,0.872,0.181,1.74,0.276,2.609c0.117,1.071,0.236,2.141,0.367,3.208c0.109,0.889,0.226,1.775,0.345,2.66   c0.139,1.037,0.282,2.072,0.434,3.105c0.133,0.902,0.271,1.802,0.414,2.7c0.16,1.009,0.327,2.015,0.5,3.02   c0.157,0.911,0.316,1.821,0.484,2.728c0.18,0.98,0.37,1.957,0.562,2.932c0.182,0.923,0.364,1.845,0.557,2.764   c0.198,0.948,0.408,1.893,0.617,2.837c0.208,0.935,0.414,1.871,0.632,2.802c0.213,0.907,0.439,1.81,0.662,2.713   c0.237,0.96,0.471,1.923,0.72,2.879c0.217,0.833,0.448,1.659,0.673,2.489c0.277,1.017,0.547,2.036,0.837,3.047   c0.185,0.646,0.384,1.286,0.574,1.929c1.31,4.433,2.738,8.814,4.293,13.136c0.086,0.239,0.167,0.481,0.254,0.72   c0.483,1.329,0.986,2.649,1.492,3.967c0.16,0.418,0.315,0.839,0.477,1.255c0.498,1.276,1.014,2.544,1.533,3.809   c0.183,0.445,0.361,0.893,0.546,1.336c0.528,1.266,1.072,2.523,1.621,3.777c0.187,0.427,0.371,0.856,0.561,1.282   c0.567,1.274,1.147,2.542,1.735,3.804c0.181,0.388,0.36,0.776,0.543,1.163c0.614,1.299,1.24,2.592,1.876,3.878   c0.162,0.328,0.324,0.655,0.488,0.981c0.672,1.342,1.354,2.677,2.05,4.004c0.126,0.241,0.254,0.481,0.381,0.722   c0.744,1.407,1.498,2.808,2.269,4.198c0.067,0.12,0.134,0.239,0.201,0.359C66.659,422.109,133.088,468.803,211.002,478.194z    M309.08,56.49c9.987-6.761,24.821-2.287,34.093,9.802c-14.663,2.007-28.895,5.336-42.589,9.867   C300.151,68.043,302.97,60.626,309.08,56.49z M202.32,34.32c2.961-2.961,8.32-2.961,11.359,0c1.438,1.52,2.32,3.598,2.32,5.68   c0,2.078-0.883,4.16-2.32,5.68C212.156,47.117,210.078,48,208,48s-4.164-0.883-5.68-2.32C200.875,44.16,200,42.16,200,40   S200.875,35.758,202.32,34.32z M192.042,118.353c0.829-16.363,13.949-29.482,30.312-30.312C222.899,88.014,223.448,88,224,88   c10.219,0,19.213,4.878,25.072,12.335c-18.131,11.324-34.64,24.989-49.102,40.593c-4.9-5.622-7.97-12.884-7.97-20.928   C192,119.448,192.014,118.899,192.042,118.353z M104.201,100.201c9.404-9.404,23.699-10.357,31.927-2.128   c8.229,8.229,7.276,22.523-2.128,31.927s-23.699,10.357-31.927,2.128S94.797,109.605,104.201,100.201z M120,287.9   c0,2.078-0.883,4.16-2.32,5.68c-1.523,1.438-3.602,2.32-5.68,2.32s-4.164-0.883-5.68-2.32c-1.445-1.52-2.32-3.602-2.32-5.68   c0-2.082,0.875-4.16,2.32-5.68c2.961-2.961,8.398-2.961,11.359,0C119.117,283.74,120,285.818,120,287.9z M48,224   c0-17.673,12.536-32,28-32s28,14.327,28,32s-12.536,32-28,32S48,241.673,48,224z M77.087,325.087   c9.373-9.373,27.101-6.84,39.598,5.657s15.03,30.225,5.657,39.598c-9.373,9.373-27.101,6.84-39.598-5.657   C70.247,352.188,67.714,334.459,77.087,325.087z" fill="#ffd586"/><ellipse cx="76px" cy="224px" rx="28px" ry="32px" fill="#e7b27e"/><ellipse cx="99px" cy="347px" rx="32px" ry="24px" transform="matrix(0.7071 0.7071 -0.7071 0.7071 275.076 31.3344)" fill="#e7b27e"/><ellipse cx="371px" cy="340px" rx="17px" ry="23px" transform="matrix(-0.7071 -0.7071 0.7071 -0.7071 393.7608 843.8184)" fill="#ffd586"/><path d="M192,200c2.078,0,4.156-0.883,5.68-2.32c1.438-1.52,2.32-3.602,2.32-5.68   c0-2.082-0.883-4.16-2.32-5.68c-3.039-2.961-8.32-2.961-11.359,0c-1.445,1.52-2.32,3.52-2.32,5.68c0,2.078,0.875,4.16,2.32,5.68   C187.836,199.117,189.922,200,192,200z" fill="#ffd586"/><path d="M106.32,282.221c-1.445,1.52-2.32,3.598-2.32,5.68c0,2.078,0.875,4.16,2.32,5.68   c1.516,1.438,3.602,2.32,5.68,2.32s4.156-0.883,5.68-2.32c1.438-1.52,2.32-3.602,2.32-5.68c0-2.082-0.883-4.16-2.32-5.68   C114.719,279.26,109.281,279.26,106.32,282.221z" fill="#e7b27e"/><path d="M314.32,282.32c-1.445,1.52-2.32,3.598-2.32,5.68c0,2.078,0.875,4.16,2.32,5.68   c1.516,1.438,3.602,2.32,5.68,2.32s4.156-0.883,5.68-2.32c1.438-1.52,2.32-3.602,2.32-5.68c0-2.082-0.883-4.16-2.32-5.68   C322.641,279.359,317.359,279.359,314.32,282.32z" fill="#ffd586"/><path d="M384,160c2.078,0,4.156-0.883,5.68-2.32c1.438-1.52,2.32-3.602,2.32-5.68   c0-2.082-0.883-4.16-2.32-5.68c-3.039-2.961-8.484-2.883-11.281,0c-1.523,1.52-2.398,3.52-2.398,5.68c0,2.078,0.875,4.16,2.32,5.68   C379.836,159.117,381.836,160,384,160z" fill="#ffd586"/><path d="M208,48c2.078,0,4.156-0.883,5.68-2.32c1.438-1.52,2.32-3.602,2.32-5.68   c0-2.082-0.883-4.16-2.32-5.68c-3.039-2.961-8.398-2.961-11.359,0C200.875,35.758,200,37.84,200,40s0.875,4.16,2.32,5.68   C203.836,47.117,205.922,48,208,48z" fill="#e7b27e"/><path d="M170.32,378.32c-1.445,1.52-2.32,3.598-2.32,5.68c0,2.078,0.875,4.16,2.32,5.68   c1.516,1.438,3.602,2.32,5.68,2.32s4.156-0.883,5.68-2.32c1.438-1.52,2.32-3.602,2.32-5.68c0-2.082-0.883-4.16-2.32-5.68   C178.641,375.359,173.359,375.359,170.32,378.32z" fill="#ffd586"/><circle cx="228" cy="300" r="44" fill="#ffd586"/><circle cx="312" cy="192" r="24" fill="#ffd586"/><ellipse cx="261px" cy="411px" rx="28px" ry="36px" transform="matrix(-0.2587 -0.966 0.966 -0.2587 -69.2244 770.3907)" fill="#ffd586"/><ellipse cx="393px" cy="237px" rx="30px" ry="22px" transform="matrix(0.1627 -0.9867 0.9867 0.1627 94.4669 587.1804)" fill="#ffd586"/><path d="M199.97,140.928c14.461-15.604,30.97-29.269,49.102-40.593C243.213,92.878,234.219,88,224,88   c-0.552,0-1.101,0.014-1.647,0.042c-16.363,0.829-29.482,13.949-30.312,30.312C192.014,118.899,192,119.448,192,120   C192,128.043,195.07,135.306,199.97,140.928z" fill="#e7b27e"/><ellipse cx="119px" cy="115px" rx="21px" ry="24px" transform="matrix(0.7071 0.7071 -0.7071 0.7071 116.272 -50.5046)" fill="#e7b27e"/><path d="M300.584,76.159c13.694-4.531,27.926-7.86,42.589-9.867c-9.272-12.089-24.106-16.563-34.093-9.802   C302.97,60.626,300.151,68.043,300.584,76.159z" fill="#e7b27e"/></g><g transform="matrix(0.14086417820268365 -0.03774444279188284 0.03774444279188284 0.14086417820268365 139.13392976921114 161.2512623093149)" id="L1_66"><path d="M303.227,8.435c3.797,1.036,7.558,2.158,11.277,3.374C310.784,10.594,307.025,9.469,303.227,8.435z" fill="#48bbee"/><path d="M206.305,187.699c8.57,0,16.961,2.504,24.234,7.316l20.541,13.599   c4.106,2.718,9.235,3.395,13.905,1.833l36.952-12.354l6.18-5.582c3.703-3.344,5.813-8.125,5.797-13.117   c-0.023-4.273-1.602-8.379-4.391-11.551l-39.044,11.585c-1.349,0.4-2.809,0.064-3.847-0.886l-26.227-24.004   c-1.742-1.598-3.68-0.977-4.227-0.746c-0.547,0.227-2.359,1.152-2.469,3.504l2.258,17.809c0.203,1.648-0.633,3.254-2.109,4.027   c-1.469,0.773-3.273,0.559-4.516-0.547l-21.773-19.305c-7.484-3.953-16.664-2.773-22.937,3.035l-6.962,17.486   c-1.093,2.745-2.924,5.134-5.291,6.902l-11.052,8.253l37.273-6.578C201.164,187.926,203.742,187.699,206.305,187.699z" fill="#48bbee"/><path d="M319.172,13.384c19.196,6.712,37.28,15.794,53.904,26.892c-0.019,0.001-0.039,0.002-0.058,0.003   c16.745,11.175,32.006,24.396,45.422,39.314l0.018-0.034c7.273,8.084,13.975,16.683,20.102,25.705   c0.203,0.298,0.405,0.596,0.606,0.896c2.433,3.617,4.77,7.302,7.008,11.055c0.335,0.562,0.667,1.125,0.998,1.689   c1.702,2.907,3.366,5.839,4.949,8.822l-0.012,0.039c13.481,25.433,22.533,53.577,26.106,83.412c-0.566,0.07-1.146,0.081-1.708-0.09   l-77.07-24.492l3.594,15.977c0.758,3.348,2.82,6.117,5.805,7.809c2.984,1.688,6.422,2.02,9.672,0.945l8.898-2.945   c1.227-0.41,2.555-0.207,3.602,0.555c1.039,0.75,1.656,1.957,1.656,3.242v21.734v0.015c0,8.867-4.203,17.208-11.328,22.485   l-22.887,18.405c-3.526,2.835-8.699,2.185-11.413-1.435l-37.037-49.383c-3.905-5.207-9.306-9.1-15.481-11.158L320,208   l60.539,78.621c5.438,4.527,12.445,6.926,19.836,6.414l11.359-0.777c1.227-0.055,2.43,0.402,3.258,1.324   c0.82,0.922,1.172,2.168,0.953,3.383l-4.672,25.75c-0.156,0.84-0.57,1.609-1.195,2.195l-46.875,44.164l-35.023,88.531   c-0.453,1.152-1.422,2.031-2.617,2.371c-4.414,1.27-8.906,1.895-13.367,1.895c-8.133,0-16.18-2.082-23.476-6.176   c-11.227-6.293-19.289-16.566-22.703-28.934c-2.703-9.797-4.016-16.324-4.016-19.957v-33.391l-5.406-2.078   c-12.453-4.789-23.461-12.805-31.844-23.18l-12.375-15.328l-53.172,9.492c-2.295,0.415-4.596,0.576-6.877,0.541   c15.355,56.699,50.972,105.065,98.597,136.862C247.3,479.886,243.663,480,240,480c132.548,0,240-107.452,240-240   C480,135.196,412.816,46.098,319.172,13.384z" fill="#48bbee"/><path d="M311.64,150.129l12.453-9.207c0.514-0.38,0.838-0.896,1.233-1.364l0.261-0.087   c2.206-2.765,2.385-6.76,0.177-9.74c-2.609-3.547-7.633-4.305-11.188-1.676l-10.328,7.641h-19.586c-4.422,0-8,3.582-8,8   s3.578,8,8,8h4.25h17.969C308.594,151.695,310.265,151.145,311.64,150.129z" fill="#48bbee"/><path d="M355.179,142.488c1.633,0,3.281-0.5,4.703-1.535c0.213-0.155,0.414-0.32,0.607-0.491   c1.339-1.2,2.161-2.787,2.486-4.462l0.045-0.012c0.401-2.099-0.027-4.352-1.389-6.214l-20.477-28.086   c-2.602-3.563-7.602-4.355-11.172-1.75c-3.57,2.602-4.359,7.609-1.75,11.18l20.477,28.086   C350.273,141.348,352.711,142.488,355.179,142.488z" fill="#48bbee"/><path d="M152.326,342.861c-3.923-0.06-7.781-0.756-11.428-2.048c-4.294-1.517-8.279-3.852-11.741-6.888   c-0.206-0.18-0.412-0.358-0.614-0.543c-0.328-0.301-0.648-0.609-0.965-0.923c-0.285-0.281-0.564-0.567-0.84-0.858   c-0.257-0.272-0.513-0.544-0.763-0.825c-0.337-0.379-0.662-0.77-0.984-1.165c-0.185-0.227-0.375-0.448-0.556-0.681   c-0.5-0.644-0.984-1.303-1.443-1.987l0,0c0,0,0-0.001,0-0.001l-5.819-8.667c-8.669-12.907-11.844-28.427-9.361-43.306   c0.033-0.2,0.061-0.401,0.096-0.6c0.043-0.241,0.094-0.482,0.14-0.723c0.079-0.416,0.155-0.831,0.243-1.246   c0.012-0.059,0.028-0.117,0.04-0.176c0.827-3.844,2.034-7.63,3.631-11.302c0.535-1.23,1.114-2.446,1.736-3.648   c0.007-0.014,0.014-0.029,0.021-0.043v0c0,0,0,0,0,0l12.258-23.644l-0.18-8.246c-0.281-12.746,7.844-23.766,19.742-27.387   l-10.867-3.023c-8.281-2.305-14.148-9.617-14.609-18.199l-0.578-10.691c-0.57-10.629,7.273-19.836,17.859-20.957L148,143.953   v-18.906c0-1.254,0.586-2.438,1.594-3.191l31.805-24.004c2.172-1.637,3.953-3.66,5.297-6.02l5.476-9.551l-35.555,6.977   c-1.172,0.223-2.391-0.078-3.313-0.836c-0.93-0.762-1.461-1.895-1.461-3.09V74.367c0-10.938,4.883-21.148,13.406-28.02   l50.094-40.402c1.281-1.035,3.07-1.176,4.508-0.352l35.07,20.199c0.938,0.539,2.023,0.668,3.078,0.387   c1.039-0.293,1.906-0.977,2.422-1.926L273.81,2.446h0l0.016-0.027c36.315,5.125,70.007,18.384,99.191,37.861   c0.02-0.001,0.039-0.002,0.058-0.003c-16.623-11.098-34.708-20.18-53.904-26.892c-0.071-0.025-0.141-0.05-0.211-0.074   c-1.293-0.451-2.592-0.89-3.895-1.319c-0.187-0.062-0.375-0.121-0.562-0.182c-3.719-1.215-7.48-2.338-11.277-3.374   c-0.516-0.141-1.031-0.281-1.548-0.419c-1.049-0.278-2.1-0.55-3.154-0.815c-0.64-0.16-1.282-0.314-1.923-0.469   c-1.54-0.373-3.086-0.73-4.637-1.073c-0.931-0.206-1.861-0.414-2.797-0.609c-0.859-0.179-1.723-0.346-2.585-0.516   c-0.899-0.177-1.799-0.351-2.702-0.518c-0.823-0.152-1.646-0.302-2.472-0.446c-1.099-0.191-2.202-0.371-3.306-0.548   c-0.63-0.101-1.257-0.208-1.888-0.304c-1.657-0.251-3.321-0.481-4.989-0.698c-0.654-0.085-1.31-0.162-1.966-0.242   c-1.188-0.145-2.379-0.281-3.573-0.408c-0.647-0.069-1.295-0.138-1.944-0.202c-1.53-0.151-3.063-0.287-4.601-0.409   c-0.267-0.021-0.531-0.048-0.798-0.068c-1.793-0.136-3.593-0.246-5.397-0.342c-0.552-0.029-1.105-0.052-1.658-0.078   c-1.354-0.063-2.712-0.115-4.072-0.155c-0.553-0.017-1.106-0.034-1.66-0.047C243.709,0.028,241.858,0,240,0   C107.452,0,0,107.452,0,240c0,132.548,107.452,240,240,240c3.664,0,7.3-0.114,10.924-0.276   C203.298,447.927,167.681,399.56,152.326,342.861z M113.18,87.945c2.32-3.77,7.242-4.953,11.008-2.629l12.789,7.852   c2.906,1.785,4.359,5.219,3.625,8.551l-5.656,25.465c-0.828,3.73-4.141,6.266-7.805,6.266c-0.578,0-1.156-0.059-1.742-0.191   c-4.313-0.957-7.031-5.23-6.078-9.543l4.422-19.898l-7.93-4.867C112.047,96.641,110.867,91.711,113.18,87.945z" fill="#0e94d7"/><path d="M251.08,208.615l6.506,4.307l7.4-2.474C260.315,212.009,255.186,211.333,251.08,208.615z" fill="#00e389"/><path d="M306.883,151.695h0.004c1.711,0,3.377-0.549,4.753-1.566l12.453-9.207l-12.453,9.207   C310.265,151.145,308.594,151.695,306.883,151.695z" fill="#00e389"/><path d="M444.112,183.373l5.092,19.037l-49.767-15.815l77.07,24.492c0.563,0.171,1.143,0.16,1.708,0.09   c-3.573-29.834-12.625-57.978-26.106-83.412l-7.524,24.997C441.588,162.723,441.424,173.323,444.112,183.373z" fill="#00e389"/><path d="M330.374,288.44l-0.877,1.315c-5.935,8.9-15.925,14.245-26.622,14.245h-93.748   c-10.699,0-20.691,5.347-26.625,14.25l-15.068,22.602l-8.221,1.467c-6.264,1.118-12.555,0.53-18.314-1.504   c3.648,1.292,7.505,1.987,11.428,2.048c2.281,0.035,4.582-0.126,6.877-0.541l53.172-9.492l12.375,15.328   c8.383,10.375,19.391,18.391,31.844,23.18l5.406,2.078v33.391c0,3.633,1.313,10.16,4.016,19.957   c3.414,12.367,11.477,22.641,22.703,28.934c7.297,4.094,15.344,6.176,23.476,6.176c4.461,0,8.953-0.625,13.367-1.895   c1.195-0.34,2.164-1.219,2.617-2.371l35.023-88.531l46.875-44.164c0.625-0.586,1.039-1.355,1.195-2.195l4.672-25.75   c0.219-1.215-0.133-2.461-0.953-3.383c-0.828-0.922-2.031-1.379-3.258-1.324l-11.359,0.777c-7.391,0.512-14.398-1.887-19.836-6.414   l-34.502-5.129C339.911,280.581,333.81,283.287,330.374,288.44z" fill="#00e389"/><path d="M273.81,2.446c0.139,0.02,0.28,0.027,0.419,0.047c13.091,1.871,25.84,4.799,38.16,8.692   c0.893,0.283,1.755,0.629,2.644,0.922c5.05,1.662,10.039,3.46,14.935,5.442c1.634,0.662,3.227,1.401,4.843,2.098   c4.094,1.764,8.146,3.605,12.118,5.586c1.831,0.914,3.63,1.878,5.434,2.837c3.685,1.958,7.318,3.999,10.886,6.14   c1.819,1.092,3.625,2.202,5.413,3.34c1.381,0.88,2.703,1.842,4.065,2.75c-97.838,4.528-180.374,67.618-213.349,155.027l1.951-0.371   l11.052-8.253c2.367-1.768,4.199-4.156,5.291-6.902l6.962-17.486c6.273-5.809,15.453-6.988,22.937-3.035l21.773,19.305   c1.242,1.105,3.047,1.32,4.516,0.547c1.477-0.773,2.313-2.379,2.109-4.027l-2.258-17.809c0.109-2.352,1.922-3.277,2.469-3.504   c0.547-0.23,2.484-0.852,4.227,0.746l26.227,24.004c1.038,0.95,2.498,1.286,3.847,0.886l39.044-11.585L288,174.23l-2.03-3.61   c-3.503-6.231-2.287-14.051,2.944-18.924h-4.25c-4.422,0-8-3.582-8-8s3.578-8,8-8h19.586l10.328-7.641   c3.555-2.629,8.578-1.871,11.188,1.676c2.207,2.98,2.029,6.975-0.177,9.74L336,136h10.375l2.335,3.203l-20.477-28.086   c-2.609-3.57-1.82-8.578,1.75-11.18c3.57-2.605,8.57-1.813,11.172,1.75l20.477,28.086c1.361,1.863,1.79,4.115,1.389,6.214   l15.901-4.383c8.359-2.304,15.425-7.901,19.581-15.51l19.937-36.5c-13.416-14.917-28.677-28.138-45.422-39.314   c-29.184-19.477-62.876-32.735-99.191-37.861L273.81,2.446z" fill="#00e389"/><path d="M115.813,98.949l7.93,4.867l-4.422,19.898c-0.953,4.313,1.766,8.586,6.078,9.543   c0.586,0.133,1.164,0.191,1.742,0.191c3.664,0,6.977-2.535,7.805-6.266l5.656-25.465c0.734-3.332-0.719-6.766-3.625-8.551   l-12.789-7.852c-3.766-2.324-8.688-1.141-11.008,2.629C110.867,91.711,112.047,96.641,115.813,98.949z" fill="#00bbbb"/><path d="M159.377,195.328c32.975-87.409,115.511-150.499,213.349-155.027   c-1.362-0.907-2.684-1.87-4.065-2.75c-1.788-1.139-3.593-2.249-5.413-3.34c-3.567-2.141-7.201-4.182-10.886-6.14   c-1.804-0.959-3.603-1.923-5.434-2.837c-3.972-1.981-8.024-3.822-12.118-5.586c-1.616-0.697-3.208-1.436-4.843-2.098   c-4.896-1.982-9.885-3.78-14.935-5.442c-0.888-0.293-1.751-0.64-2.644-0.922c-12.32-3.894-25.068-6.822-38.16-8.692   c-0.139-0.02-0.28-0.027-0.419-0.047h0l-13.388,21.808c-0.516,0.949-1.383,1.633-2.422,1.926c-1.055,0.281-2.141,0.152-3.078-0.387   l-35.07-20.199c-1.438-0.824-3.227-0.684-4.508,0.352L165.25,46.348c-8.523,6.871-13.406,17.082-13.406,28.02v10.965   c0,1.195,0.531,2.328,1.461,3.09c0.922,0.758,2.141,1.059,3.313,0.836l35.555-6.977l-5.476,9.551   c-1.344,2.359-3.125,4.383-5.297,6.02l-31.805,24.004c-1.008,0.754-1.594,1.938-1.594,3.191v18.906l-10.656,1.133   c-10.586,1.121-18.43,10.328-17.859,20.957l0.578,10.691c0.461,8.582,6.328,15.895,14.609,18.199l10.867,3.023L159.377,195.328z" fill="#00bbbb"/><path d="M107.831,294.822c-1.106-6.555-1.118-13.266-0.02-19.851c-2.483,14.879,0.692,30.399,9.361,43.306   c-0.382-0.568-0.753-1.142-1.113-1.72C111.859,309.818,109.113,302.425,107.831,294.822z" fill="#00bbbb"/><path d="M113.719,257.233 113.718,257.234 125.977,233.59z" fill="#ffedb9"/><path d="M378.922,131.604l-15.901,4.383L362.976,136c-0.325,1.676-1.147,3.262-2.486,4.462   c-0.192,0.172-0.394,0.336-0.607,0.491c-1.422,1.035-3.07,1.535-4.703,1.535c-2.469,0-4.906-1.141-6.469-3.285L346.375,136H336   l-10.412,3.47l-0.261,0.087c-0.395,0.468-0.719,0.984-1.233,1.364l-12.453,9.207c-1.376,1.017-3.042,1.566-4.753,1.566h-0.004   h-17.969c-5.23,4.873-6.447,12.693-2.944,18.924l2.03,3.61l21.523-6.386c2.789,3.172,4.367,7.277,4.391,11.551   c0.016,4.992-2.094,9.773-5.797,13.117l-6.18,5.582l-36.952,12.354l-7.4,2.474l-6.506-4.307l-20.541-13.599   c-7.273-4.813-15.664-7.316-24.234-7.316c-2.563,0-5.141,0.227-7.703,0.68l-37.273,6.578l-1.951,0.371l-13.838,2.629l13.901-2.641   C149.499,221.657,144,250.178,144,280c0,21.739,2.954,42.774,8.373,62.797c-8.571-0.123-16.805-3.276-23.216-8.871   c3.462,3.036,7.448,5.371,11.741,6.888c5.759,2.034,12.05,2.623,18.314,1.504l8.221-1.467l15.068-22.602   c5.935-8.902,15.926-14.25,26.625-14.25h93.748c10.697,0,20.687-5.345,26.622-14.245l0.877-1.315   c3.436-5.152,9.537-7.859,15.663-6.948l34.502,5.129L320,208l14.517,4.839c6.175,2.058,11.575,5.951,15.481,11.158l37.037,49.383   c2.715,3.619,7.888,4.27,11.413,1.435l22.887-18.405c7.125-5.277,11.328-13.618,11.328-22.485v-0.015v-21.734   c0-1.285-0.617-2.492-1.656-3.242c-1.047-0.762-2.375-0.965-3.602-0.555l-8.898,2.945c-3.25,1.074-6.688,0.742-9.672-0.945   c-2.984-1.691-5.047-4.461-5.805-7.809l-3.594-15.977l49.767,15.815l-5.092-19.037c-2.688-10.05-2.524-20.649,0.474-30.611   l7.524-24.997l0.012-0.039c-1.582-2.983-3.247-5.915-4.949-8.822c-0.331-0.564-0.663-1.128-0.998-1.689   c-2.238-3.753-4.575-7.438-7.008-11.055c-0.201-0.299-0.403-0.597-0.606-0.896c-6.127-9.022-12.829-17.621-20.102-25.705   l-0.018,0.034l-19.937,36.5C394.347,123.703,387.281,129.301,378.922,131.604z" fill="#ffedb9"/><path d="M107.831,294.822c1.282,7.603,4.028,14.996,8.228,21.735   C111.859,309.818,109.113,302.425,107.831,294.822z" fill="#ffedb9"/><path d="M152.373,342.797C146.954,322.774,144,301.739,144,280c0-29.822,5.499-58.343,15.44-84.684   l-13.901,2.641c-11.898,3.621-20.023,14.641-19.742,27.387l0.18,8.246l-12.258,23.644v0c-0.007,0.014-0.014,0.029-0.021,0.043   c-0.622,1.202-1.201,2.418-1.736,3.648c-1.597,3.671-2.804,7.458-3.631,11.302c-0.013,0.059-0.028,0.117-0.04,0.176   c-0.088,0.414-0.164,0.83-0.243,1.246c-0.046,0.241-0.098,0.481-0.14,0.723c-0.035,0.2-0.063,0.4-0.096,0.6   c-1.098,6.585-1.085,13.296,0.02,19.851c1.282,7.603,4.028,14.996,8.228,21.735c0.36,0.578,0.731,1.152,1.113,1.72l5.82,8.667l0,0   c0.459,0.684,0.943,1.343,1.443,1.987c0.18,0.232,0.37,0.454,0.556,0.681c0.322,0.395,0.647,0.786,0.984,1.165   c0.25,0.28,0.505,0.553,0.763,0.825c0.276,0.291,0.555,0.577,0.84,0.858c0.318,0.313,0.637,0.623,0.965,0.923   c0.202,0.185,0.409,0.363,0.614,0.543C135.568,339.521,143.802,342.674,152.373,342.797z" fill="#ffd586"/></g><g transform="matrix(0.18145161867141724 0 0 0.18145161867141724 216.5 217.50000099674355)" id="L1_67"><path d="M416,247.647   c0,0.078,0,0.078,0,0.078" fill="none" stroke="#5c546a" stroke-linecap="round" stroke-linejoin="round" stroke-width="0"/><path d="M115.218,108.547c0.336,0.218,0.666,0.443,0.991,0.675c0.024,0.017,0.047,0.033,0.071,0.051   c0.335,0.24,0.664,0.487,0.988,0.741c0.013,0.01,0.025,0.02,0.038,0.03c0.331,0.261,0.656,0.529,0.975,0.804   c0.005,0.004,0.01,0.009,0.015,0.013c0.324,0.281,0.642,0.568,0.953,0.863c0,0,0,0,0,0l0,0c0.825,0.782,1.608,1.609,2.333,2.485   c0.35,0.045,0.702,0.076,1.058,0.076c1.836,0,3.602-0.559,5.117-1.84c3.438-2.801,3.844-7.84,1.039-11.281   c-2.797-3.359-7.836-3.84-11.281-1.039c-2.443,2.093-3.353,5.329-2.597,8.232c0.064,0.04,0.127,0.081,0.19,0.122   C115.146,108.501,115.182,108.523,115.218,108.547z" fill="#5c546a"/><path d="M68.719,180.287c-4.242-1.523-8.797,0.719-10.242,4.875c-1.438,4.242,0.805,8.719,4.961,10.242   c0.883,0.242,1.758,0.398,2.641,0.398c3.281,0,6.398-2.078,7.523-5.359C75.039,186.287,72.875,181.725,68.719,180.287z" fill="#5c546a"/><path d="M142,92.045c1.438,2.637,4.156,4.078,6.961,4.078c1.281,0,2.719-0.32,3.914-1.039   c3.844-2.242,5.203-7.121,2.961-10.961c-2.156-3.84-7.039-5.121-10.875-2.961C141.117,83.323,139.758,88.205,142,92.045z" fill="#5c546a"/><path d="M85.823,156.188c-0.336-0.198-0.667-0.403-0.993-0.614c-0.035-0.022-0.07-0.044-0.104-0.067   c-0.306-0.199-0.607-0.406-0.904-0.616c-0.053-0.038-0.106-0.075-0.159-0.113c-0.284-0.204-0.563-0.413-0.838-0.628   c-0.062-0.048-0.124-0.097-0.186-0.146c-0.266-0.211-0.529-0.425-0.787-0.646c-0.066-0.056-0.132-0.114-0.198-0.171   c-0.251-0.218-0.5-0.44-0.743-0.667c-0.068-0.063-0.133-0.127-0.2-0.191c-0.24-0.228-0.477-0.458-0.708-0.694   c-0.062-0.063-0.122-0.129-0.184-0.193c-0.233-0.242-0.463-0.485-0.687-0.735c-0.009-0.01-0.018-0.019-0.026-0.028   c-2.784,0.033-5.486,1.49-6.948,4.085c-2.156,3.84-0.797,8.719,3.125,10.883c1.195,0.719,2.555,1.039,3.836,1.039   c2.805,0,5.523-1.523,7.039-4.164c0.984-1.811,1.191-3.852,0.741-5.731c-0.36-0.191-0.714-0.391-1.064-0.596   C85.83,156.192,85.826,156.19,85.823,156.188z" fill="#5c546a"/><path d="M57.039,226.686c0.398,0.078,0.797,0.156,1.203,0.156c3.914,0,7.273-2.797,7.914-6.797   c0.719-4.32-2.234-8.484-6.641-9.125c-4.32-0.719-8.477,2.242-9.117,6.641C49.68,221.881,52.641,226.045,57.039,226.686z" fill="#5c546a"/><path d="M105.68,374.045c3.359-2.883,3.68-7.922,0.797-11.281c-2.875-3.359-7.922-3.758-11.281-0.883   c-3.359,2.883-3.68,7.922-0.797,11.281c1.523,1.844,3.758,2.805,6,2.805C102.242,375.967,104.156,375.326,105.68,374.045z" fill="#5c546a"/><path d="M81.758,350.045c1.438,0,2.797-0.398,4.078-1.125c3.844-2.32,5.039-7.195,2.805-10.953   c-2.242-3.844-7.203-5.125-10.961-2.805c-3.844,2.242-5.039,7.125-2.805,10.961C76.398,348.6,79.039,350.045,81.758,350.045z" fill="#5c546a"/><path d="M56.078,258.686c4.477-0.086,8-3.68,7.922-8.086c-0.078-4.477-3.68-8-8.078-7.914   c-4.484,0.078-8,3.68-7.922,8.078s3.68,7.922,8,7.922C56.078,258.686,56.078,258.686,56.078,258.686z" fill="#5c546a"/><path d="M75.359,310.365c-1.602-4.078-6.164-6.164-10.32-4.641c-4.164,1.602-6.242,6.242-4.641,10.32   c1.203,3.195,4.242,5.195,7.438,5.195c0.961,0,1.922-0.156,2.883-0.555C74.797,319.162,76.875,314.522,75.359,310.365z" fill="#5c546a"/><path d="M59.195,290.443c0.484,0,0.961,0,1.523-0.078c4.32-0.883,7.203-5.039,6.398-9.359   c-0.875-4.32-5.039-7.203-9.359-6.406c-4.398,0.805-7.203,5.047-6.398,9.367C52.078,287.803,55.438,290.443,59.195,290.443z" fill="#5c546a"/><path d="M170.398,77.483c1.203,3.281,4.242,5.281,7.602,5.281c0.875,0,1.758-0.16,2.641-0.48   c4.156-1.441,6.32-6.078,4.875-10.238c-1.516-4.16-6.078-6.32-10.234-4.801C171.117,68.682,168.961,73.323,170.398,77.483z" fill="#5c546a"/><path d="M405.359,187.725c1.195,3.195,4.242,5.281,7.516,5.281c0.961,0,1.844-0.164,2.727-0.484   c4.156-1.516,6.32-6.156,4.797-10.32c-1.523-4.156-6.078-6.234-10.242-4.719C406,179.006,403.836,183.561,405.359,187.725z" fill="#5c546a"/><path d="M375.836,123.725c-3.359,2.801-3.758,7.918-0.961,11.277c1.602,1.84,3.844,2.883,6.164,2.883   c1.758,0,3.602-0.641,5.117-1.922c3.359-2.801,3.844-7.84,0.961-11.281h0.078C384.32,121.323,379.281,120.842,375.836,123.725z" fill="#5c546a"/><path d="M352.32,102.123c-2.883,3.359-2.398,8.402,0.961,11.281c1.516,1.199,3.359,1.84,5.195,1.84   c2.242,0,4.484-0.961,6.078-2.879c2.883-3.363,2.406-8.402-0.953-11.281C360.242,98.284,355.195,98.682,352.32,102.123z" fill="#5c546a"/><path d="M420,287.404c0.398,0.078,0.875,0.078,1.359,0.078c3.758,0,7.117-2.719,7.836-6.641   c0.727-4.32-2.156-8.477-6.477-9.195c-4.398-0.805-8.563,2.156-9.281,6.477C412.719,282.522,415.601,286.6,420,287.404z" fill="#5c546a"/><path d="M422.555,223.725c4.32-0.805,7.281-4.961,6.484-9.281c-0.719-4.32-4.883-7.281-9.281-6.477   c-4.32,0.797-7.203,4.875-6.477,9.273c0.719,3.844,4.078,6.563,7.914,6.563C421.601,223.803,422.078,223.803,422.555,223.725z" fill="#5c546a"/><path d="M200.961,68.045c0.719,3.84,4.078,6.637,7.914,6.637c0.484,0,0.883-0.078,1.367-0.078   c4.313-0.801,7.273-4.961,6.555-9.281c-0.797-4.32-4.875-7.277-9.281-6.559C203.195,59.565,200.242,63.643,200.961,68.045z" fill="#5c546a"/><path d="M325.437,84.842c-2.242,3.84-0.961,8.723,2.883,10.961c0-0.078,0-0.078,0-0.078   c1.195,0.801,2.641,1.117,4,1.117c2.719,0,5.438-1.438,6.875-4c2.242-3.758,0.961-8.637-2.875-10.879   C332.476,79.725,327.601,81.002,325.437,84.842z" fill="#5c546a"/><path d="M232.719,64.045c0,4.398,3.602,8,8,8c4.398,0,8-3.602,8-8c0-4.402-3.523-8-7.922-8   C236.32,56.045,232.797,59.565,232.719,64.045z" fill="#5c546a"/><path d="M264.719,65.483c-0.797,4.402,2.078,8.48,6.477,9.281c0.406,0.078,0.883,0.16,1.359,0.16   c3.844,0,7.203-2.719,7.922-6.641c0.719-4.32-2.156-8.48-6.477-9.281C269.601,58.284,265.437,61.162,264.719,65.483z" fill="#5c546a"/><path d="M295.922,72.526c-1.523,4.156,0.555,8.719,4.719,10.238c0.961,0.32,1.836,0.48,2.797,0.48   c3.203,0,6.32-2,7.438-5.199c1.523-4.16-0.555-8.801-4.719-10.32C302,66.205,297.437,68.366,295.922,72.526z" fill="#5c546a"/><path d="M424,239.647c-4.484,0-8,3.594-8,8c0,4.477,3.602,8,8,8s8-3.602,8-8   C432,243.24,428.398,239.647,424,239.647z" fill="#5c546a"/><path d="M399.359,164.045c1.359,0,2.797-0.398,4-1.125c3.836-2.156,5.117-7.117,2.961-10.875   c-2.242-3.84-7.125-5.203-10.961-2.961c-3.844,2.238-5.117,7.121-2.883,10.961C393.922,162.6,396.64,164.045,399.359,164.045z" fill="#5c546a"/><path d="M386.64,359.482c-3.445-2.883-8.484-2.398-11.281,1.039c-2.805,3.359-2.32,8.398,1.039,11.281   c1.523,1.203,3.281,1.844,5.117,1.844c2.32,0,4.563-1.047,6.164-2.883C390.476,367.326,390,362.287,386.64,359.482z" fill="#5c546a"/><path d="M301.359,413.084c-4.164,1.516-6.32,6.078-4.719,10.242c1.195,3.195,4.234,5.195,7.516,5.195   c0.883,0,1.844-0.156,2.719-0.477c4.164-1.523,6.242-6.164,4.727-10.242C310.078,413.647,305.516,411.482,301.359,413.084z" fill="#5c546a"/><path d="M420.64,313.084c1.516-4.164-0.641-8.719-4.805-10.242c-4.156-1.438-8.719,0.641-10.234,4.805   c-1.445,4.156,0.641,8.797,4.797,10.234c0.961,0.32,1.844,0.484,2.719,0.484C416.398,318.365,419.515,316.365,420.64,313.084z" fill="#5c546a"/><path d="M241.437,424.045c-4.398,0-8,3.68-7.922,8.078c0,4.398,3.602,7.922,8,7.922c0,0,0,0,0.086,0   c4.398-0.078,7.914-3.68,7.914-8.078C249.437,427.561,245.836,423.967,241.437,424.045z" fill="#5c546a"/><path d="M395.758,346.287c1.281,0.719,2.641,1.117,4,1.117c2.719,0,5.438-1.438,6.883-4.078h0.078   c2.156-3.766,0.797-8.727-3.039-10.883c-3.844-2.242-8.719-0.883-10.883,2.961C390.555,339.24,391.922,344.123,395.758,346.287z" fill="#5c546a"/><path d="M181.359,414.045c-4.164-1.523-8.719,0.719-10.164,4.875c-1.516,4.164,0.727,8.727,4.883,10.242   c0.883,0.242,1.758,0.398,2.641,0.398c3.281,0,6.398-2,7.523-5.359C187.758,420.123,185.516,415.482,181.359,414.045z" fill="#5c546a"/><path d="M129.438,395.326c2.805-3.359,2.32-8.406-1.117-11.203c-3.359-2.797-8.398-2.32-11.203,1.117   c-2.797,3.359-2.32,8.406,1.039,11.203v0.078c1.523,1.203,3.359,1.766,5.125,1.766   C125.602,398.287,127.836,397.326,129.438,395.326z" fill="#5c546a"/><path d="M271.836,421.162c-4.32,0.805-7.195,4.961-6.398,9.281c0.719,3.844,4.078,6.563,7.922,6.563   c0.398,0,0.883,0,1.359-0.086c4.398-0.875,7.281-5.039,6.477-9.359C280.398,423.24,276.242,420.365,271.836,421.162z" fill="#5c546a"/><path d="M328.961,399.967c-3.844,2.234-5.125,7.117-2.883,10.953c1.523,2.484,4.164,3.922,6.883,3.922   c1.438,0,2.797-0.32,4.078-1.117c3.758-2.242,5.117-7.125,2.883-10.883C337.68,399.006,332.719,397.725,328.961,399.967z" fill="#5c546a"/><path d="M153.602,401.404c-3.844-2.164-8.805-0.805-10.961,3.039c-2.164,3.844-0.805,8.719,3.039,10.883   c1.281,0.719,2.641,1.039,3.922,1.039c2.797,0,5.516-1.445,7.039-4.078C158.797,408.443,157.437,403.561,153.602,401.404z" fill="#5c546a"/><path d="M210.961,421.647c-4.406-0.727-8.484,2.234-9.203,6.555c-0.719,4.398,2.242,8.563,6.563,9.281   c0.477,0.078,0.875,0.078,1.359,0.078c3.836,0,7.195-2.797,7.836-6.719C218.242,426.522,215.281,422.365,210.961,421.647z" fill="#5c546a"/><path d="M353.836,382.287c0-0.086,0-0.086,0-0.086c-3.359,2.883-3.758,7.922-0.875,11.281   c1.516,1.922,3.836,2.883,6.078,2.883c1.836,0,3.68-0.641,5.203-1.922c3.359-2.883,3.758-7.922,0.875-11.281   C362.242,379.803,357.195,379.404,353.836,382.287z" fill="#5c546a"/><path d="M274.555,108.205c-4.313-1.043-8.633,1.598-9.68,5.84c-1.039,4.32,1.602,8.637,5.844,9.68   c0.641,0.16,1.281,0.238,1.922,0.238c3.602,0,6.875-2.398,7.758-6.078C281.437,113.643,278.797,109.244,274.555,108.205z" fill="#5c546a"/><path d="M150.961,156.045c3.195-3.043,3.281-8.16,0.234-11.281c-3.117-3.199-8.156-3.281-11.359-0.16v-0.078   c-3.195,3.117-3.281,8.156-0.156,11.359c1.516,1.598,3.68,2.48,5.758,2.48C147.437,158.366,149.437,157.565,150.961,156.045z" fill="#5c546a"/><path d="M289.281,382.842c0.961,0,1.914-0.156,2.875-0.555c4.164-1.602,6.164-6.242,4.563-10.32   c-1.602-4.164-6.242-6.164-10.32-4.563c-4.156,1.602-6.156,6.242-4.563,10.32C283.039,380.92,286.078,382.842,289.281,382.842z" fill="#5c546a"/><path d="M137.359,345.24c1.836,0,3.68-0.641,5.195-1.914c3.367-2.961,3.687-8,0.805-11.359   c-2.883-3.281-7.922-3.68-11.281-0.727c-3.359,2.883-3.68,7.922-0.797,11.281C132.875,344.287,135.117,345.24,137.359,345.24z" fill="#5c546a"/><path d="M204.555,124.682c0.727,0,1.445-0.078,2.086-0.238c4.32-1.199,6.797-5.602,5.68-9.84   c-1.125-4.238-5.523-6.801-9.844-5.602c-4.234,1.121-6.797,5.523-5.602,9.762C197.836,122.366,201.039,124.682,204.555,124.682z" fill="#5c546a"/><path d="M172.875,137.725c1.367,0,2.641-0.32,3.922-1.043c3.844-2.156,5.203-7.039,3.039-10.879   c-2.234-3.84-7.117-5.199-10.961-3.039c-3.836,2.238-5.195,7.121-2.953,10.961C167.359,136.283,170.078,137.725,172.875,137.725z" fill="#5c546a"/><path d="M130.797,181.241c2.32-3.758,1.125-8.719-2.641-10.953c-3.836-2.32-8.719-1.203-11.039,2.633   c-2.32,3.766-1.117,8.641,2.641,10.961c1.281,0.805,2.719,1.203,4.164,1.203C126.641,185.084,129.281,183.725,130.797,181.241z" fill="#5c546a"/><path d="M238.641,120.045c4.398,0,8-3.68,7.914-8.082c0-4.398-3.68-7.918-8.078-7.918   c-4.398,0.078-7.922,3.68-7.922,8.078c0.086,4.402,3.602,7.922,8,7.922H238.641z" fill="#5c546a"/><path d="M308.476,121.323h-0.078c-3.844-2.078-8.719-0.641-10.797,3.203   c-2.086,3.918-0.641,8.797,3.195,10.879c1.203,0.641,2.563,0.961,3.844,0.961c2.797,0,5.602-1.523,7.039-4.16   C313.758,128.283,312.32,123.405,308.476,121.323z" fill="#5c546a"/><path d="M103.758,250.123c0.164,0.078,0.242,0.078,0.32,0.078c4.32,0,7.844-3.438,8-7.68   c0.242-4.398-3.203-8.156-7.602-8.398c-4.398-0.156-8.156,3.281-8.398,7.68h0.078C95.922,246.201,99.359,249.967,103.758,250.123z" fill="#5c546a"/><path d="M359.601,313.404c1.039,0.477,2.234,0.719,3.359,0.719c3.039,0,5.914-1.68,7.281-4.563   c1.836-4,0.156-8.719-3.844-10.641c-4-1.914-8.719-0.156-10.641,3.844C353.836,306.686,355.601,311.482,359.601,313.404z" fill="#5c546a"/><path d="M361.68,208.123c1.039,3.359,4.156,5.523,7.516,5.523c0.883,0,1.68-0.164,2.563-0.406   c4.164-1.359,6.484-5.914,5.117-10.078c-1.438-4.242-5.914-6.477-10.156-5.117C362.555,199.404,360.242,203.881,361.68,208.123z" fill="#5c546a"/><path d="M383.68,238.842v-0.078c-0.242-4.398-4.078-7.758-8.484-7.438c-4.398,0.234-7.758,4.078-7.438,8.477   c0.242,4.242,3.758,7.523,7.922,7.523c0.242,0,0.398,0,0.563-0.086C380.64,247.006,384,243.24,383.68,238.842z" fill="#5c546a"/><path d="M373.601,281.561c3.758,0,7.117-2.719,7.836-6.555c0.883-4.32-2-8.484-6.32-9.359   c-4.398-0.805-8.563,2.078-9.359,6.398s2,8.555,6.398,9.359C372.64,281.483,373.117,281.561,373.601,281.561z" fill="#5c546a"/><path d="M358.797,181.405c3.758-2.398,4.805-7.359,2.484-11.117v0.078   c-2.406-3.766-7.359-4.805-11.125-2.484c-3.68,2.406-4.719,7.359-2.398,11.125c1.523,2.32,4.078,3.68,6.719,3.68   C356,182.686,357.515,182.201,358.797,181.405z" fill="#5c546a"/><path d="M338.398,329.881c0,0.086,0,0.086,0,0.086c-2.883,3.359-2.398,8.398,1.039,11.195   c1.438,1.281,3.281,1.922,5.117,1.922c2.242,0,4.563-1.039,6.086-2.883c2.875-3.438,2.398-8.477-0.961-11.281   C346.242,326.045,341.195,326.522,338.398,329.881z" fill="#5c546a"/><path d="M106.961,284.365c0.555,0,1.039-0.078,1.594-0.164c4.406-0.961,7.125-5.195,6.242-9.516   c-0.961-4.32-5.195-7.125-9.516-6.164c-4.32,0.883-7.125,5.125-6.164,9.523C99.922,281.725,103.195,284.365,106.961,284.365z" fill="#5c546a"/><path d="M185.836,373.084c-1.516,4.156,0.641,8.719,4.805,10.242c0.875,0.398,1.836,0.555,2.719,0.555   c3.281,0,6.32-2.078,7.516-5.281c1.523-4.156-0.633-8.797-4.719-10.234C192,366.842,187.359,368.92,185.836,373.084z" fill="#5c546a"/><path d="M109.836,216.365c3.445,0,6.641-2.242,7.68-5.68c1.281-4.242-1.117-8.719-5.359-10   c-4.156-1.281-8.641,1.117-9.914,5.359c-1.281,4.156,1.039,8.641,5.273,10C108.32,216.201,109.117,216.365,109.836,216.365z" fill="#5c546a"/><path d="M326.641,142.924c-3.039,3.199-2.805,8.32,0.398,11.281c1.516,1.438,3.516,2.16,5.438,2.16   c2.164,0,4.32-0.883,5.844-2.563c3.039-3.277,2.875-8.32-0.398-11.277C334.719,139.483,329.601,139.643,326.641,142.924z" fill="#5c546a"/><path d="M118.242,316.764c1.195,0,2.477-0.32,3.594-0.883c3.922-2,5.523-6.797,3.602-10.719   c-2-3.922-6.797-5.602-10.719-3.602c-4,2-5.602,6.805-3.602,10.727C112.477,315.084,115.359,316.764,118.242,316.764z" fill="#5c546a"/><path d="M314.719,351.967c-3.523,2.555-4.398,7.594-1.758,11.117c1.516,2.242,4,3.359,6.477,3.359   c1.602,0,3.281-0.477,4.641-1.523c3.602-2.555,4.398-7.594,1.844-11.117C323.359,350.201,318.32,349.404,314.719,351.967z" fill="#5c546a"/><path d="M156.32,355.561c-2.484,3.602-1.602,8.641,2.078,11.125c1.359,0.961,2.961,1.438,4.477,1.438   c2.563,0,5.047-1.203,6.641-3.523c2.484-3.594,1.602-8.555-2.078-11.117C163.836,351.006,158.797,351.881,156.32,355.561z" fill="#5c546a"/><path d="M24.078,308.045c-1.117-4.242-5.523-6.805-9.836-5.602c-4.242,1.203-6.727,5.602-5.523,9.844   c0.961,3.516,4.156,5.914,7.68,5.914c0.719,0,1.438-0.156,2.156-0.32C22.797,316.686,25.281,312.287,24.078,308.045z" fill="#5c546a"/><path d="M228.477,24.283c0.164,0,0.32,0,0.398,0c4.406-0.16,7.844-3.918,7.602-8.32   c-0.156-4.48-3.922-7.84-8.32-7.598c-4.477,0.16-7.836,3.918-7.68,8.316C220.719,21.002,224.242,24.283,228.477,24.283z" fill="#5c546a"/><path d="M373.758,68.284c1.359,1.121,3.039,1.602,4.719,1.602c2.484,0,4.883-1.121,6.484-3.203   c2.555-3.52,1.836-8.559-1.68-11.199c-3.523-2.641-8.563-1.918-11.203,1.602C369.437,60.682,370.156,65.725,373.758,68.284z" fill="#5c546a"/><path d="M196.797,28.045c0.484,0,0.961,0,1.445-0.16c4.313-0.801,7.195-4.961,6.398-9.281   c-0.805-4.398-5.039-7.199-9.359-6.398c-4.32,0.797-7.203,5.039-6.406,9.359C189.602,25.405,192.961,28.045,196.797,28.045z" fill="#5c546a"/><path d="M34.398,337.162c-1.758-4.078-6.477-5.922-10.477-4.156c-4.086,1.758-5.922,6.477-4.164,10.477   c1.281,3.039,4.242,4.883,7.281,4.883c1.117,0,2.156-0.242,3.203-0.719C34.32,345.881,36.156,341.162,34.398,337.162z" fill="#5c546a"/><path d="M317.836,458.123c-4.156,1.523-6.234,6.164-4.719,10.32c1.203,3.203,4.242,5.203,7.523,5.203   c0.875,0,1.836-0.164,2.797-0.484c4.078-1.602,6.242-6.156,4.719-10.32C326.641,458.686,322,456.6,317.836,458.123z" fill="#5c546a"/><path d="M226.797,471.647c-4.398-0.242-8.156,3.117-8.398,7.516s3.117,8.242,7.523,8.484   c0.156,0,0.234,0,0.398,0c4.234,0,7.758-3.281,8-7.523C234.555,475.725,231.195,471.881,226.797,471.647z" fill="#5c546a"/><path d="M347.758,51.643c1.203,0.641,2.563,0.961,3.844,0.961c2.797,0,5.594-1.52,7.039-4.16   c2.078-3.84,0.719-8.719-3.125-10.801c-3.914-2.16-8.797-0.801-10.875,3.121C342.476,44.604,343.922,49.483,347.758,51.643z" fill="#5c546a"/><path d="M257.68,471.326c-4.398,0.398-7.68,4.234-7.281,8.641c0.242,4.156,3.758,7.359,7.922,7.359   c0.234,0,0.398,0,0.641,0c4.398-0.406,7.68-4.242,7.359-8.641S262.078,471.006,257.68,471.326z" fill="#5c546a"/><path d="M9.195,223.006c0.406,0.078,0.727,0.078,1.125,0.078c3.922,0,7.359-2.883,7.922-6.883   c0.633-4.398-2.406-8.398-6.805-9.039s-8.398,2.398-9.039,6.805C1.758,218.287,4.797,222.365,9.195,223.006z" fill="#5c546a"/><path d="M7.922,254.92c4.477,0,8.078-3.516,8.078-7.914c0-4.484-3.523-8-7.922-8.086   c-4.477,0-8.078,3.602-8.078,8C0,251.326,3.516,254.92,7.922,254.92z" fill="#5c546a"/><path d="M11.039,286.764c4.398-0.563,7.516-4.562,6.883-8.961c-0.563-4.398-4.563-7.438-8.961-6.883   c-4.406,0.563-7.445,4.563-6.883,8.961c0.563,4.086,4,6.961,7.922,6.961C10.398,286.842,10.719,286.842,11.039,286.764z" fill="#5c546a"/><path d="M424,114.682c1.68,0,3.359-0.559,4.797-1.68c3.523-2.719,4.164-7.758,1.523-11.199   c-2.719-3.52-7.766-4.16-11.281-1.52c-3.438,2.719-4.078,7.762-1.438,11.281C419.195,113.565,421.515,114.682,424,114.682z" fill="#5c546a"/><path d="M37.68,361.881c-3.844,2.32-5.039,7.203-2.719,10.961c1.516,2.484,4.156,3.844,6.875,3.844   c1.359,0,2.805-0.32,4.164-1.125c3.758-2.32,4.961-7.273,2.641-11.039C46.32,360.764,41.438,359.561,37.68,361.881z" fill="#5c546a"/><path d="M402.797,90.682c2,0,4.078-0.797,5.68-2.316c3.039-3.203,3.039-8.242-0.078-11.363   c-3.203-3.117-8.242-3.039-11.359,0.082c-3.117,3.199-3.039,8.238,0.078,11.359C398.719,89.963,400.719,90.682,402.797,90.682z" fill="#5c546a"/><path d="M346,445.404c-3.922,2.078-5.359,6.961-3.281,10.883c1.438,2.633,4.242,4.156,7.117,4.156   c1.203,0,2.563-0.32,3.766-0.961c3.836-2.078,5.359-6.961,3.195-10.797C354.719,444.764,349.836,443.326,346,445.404z" fill="#5c546a"/><path d="M111.602,431.647c-3.602-2.563-8.563-1.68-11.125,1.914c-2.555,3.68-1.68,8.641,2,11.203   c1.359,0.961,2.961,1.438,4.563,1.438c2.477,0,4.961-1.195,6.563-3.438C116.156,439.162,115.195,434.201,111.602,431.647z" fill="#5c546a"/><path d="M372.078,428.92c-3.523,2.641-4.32,7.602-1.68,11.203c1.523,2.164,4,3.281,6.398,3.281   c1.68,0,3.281-0.484,4.719-1.523c3.602-2.641,4.406-7.68,1.766-11.195C380.64,427.084,375.68,426.365,372.078,428.92z" fill="#5c546a"/><path d="M441.68,141.244c1.359,0,2.719-0.32,3.922-1.039c3.836-2.16,5.195-7.043,3.039-10.883   c-2.242-3.84-7.125-5.199-10.961-2.957c-3.844,2.16-5.203,7.039-2.961,10.879C436.156,139.803,438.875,141.244,441.68,141.244z" fill="#5c546a"/><path d="M457.515,194.444c0.883,3.68,4.242,6.078,7.844,6.078c0.563,0,1.195-0.078,1.836-0.234   c4.32-1.047,6.961-5.367,5.922-9.688c-1.117-4.234-5.438-6.875-9.68-5.836C459.117,185.803,456.476,190.123,457.515,194.444z" fill="#5c546a"/><path d="M138.078,447.561c-3.922-2-8.797-0.477-10.797,3.445c-2,3.914-0.484,8.797,3.516,10.797   c1.125,0.563,2.398,0.883,3.602,0.883c2.883,0,5.68-1.602,7.117-4.398C143.516,454.365,142,449.561,138.078,447.561z" fill="#5c546a"/><path d="M448.156,165.084c-0.078,0-0.078,0-0.078,0c1.281,3.117,4.32,5.039,7.438,5.039   c1.039,0,2-0.242,2.961-0.563c4.164-1.68,6.164-6.32,4.484-10.477c-1.602-4.082-6.242-6.082-10.406-4.402   C448.476,156.283,446.476,160.92,448.156,165.084z" fill="#5c546a"/><path d="M55.281,388.6c-3.445,2.805-4,7.844-1.203,11.281c1.602,1.922,3.922,2.883,6.242,2.883   c1.758,0,3.516-0.563,5.039-1.758c3.438-2.805,3.922-7.844,1.117-11.281C63.68,386.287,58.641,385.803,55.281,388.6z" fill="#5c546a"/><path d="M14.797,191.483c0.719,0.242,1.445,0.32,2.164,0.32c3.516,0,6.719-2.242,7.758-5.758   c1.203-4.242-1.281-8.719-5.523-9.922c-4.234-1.203-8.641,1.203-9.914,5.523C8.078,185.881,10.555,190.287,14.797,191.483z" fill="#5c546a"/><path d="M259.758,24.924c0.242,0,0.484,0,0.719,0c4.078,0,7.602-3.121,8-7.281   c0.32-4.398-2.875-8.32-7.281-8.641c-4.398-0.398-8.32,2.801-8.719,7.281C252.078,20.604,255.359,24.526,259.758,24.924z" fill="#5c546a"/><path d="M473.213,224.076c0.148,0.007,0.295,0.022,0.442,0.033c0.251,0.017,0.502,0.032,0.751,0.057   c0.188,0.019,0.372,0.046,0.559,0.069c0.206,0.025,0.413,0.048,0.617,0.078c0.209,0.031,0.416,0.071,0.623,0.108   c0.176,0.031,0.354,0.059,0.529,0.094c0.228,0.046,0.452,0.099,0.677,0.151c0.151,0.035,0.303,0.067,0.453,0.104   c0.241,0.061,0.479,0.129,0.717,0.196c0.043,0.012,0.087,0.023,0.13,0.036c0.065-0.573,0.073-1.162,0.009-1.761   c-0.477-4.398-4.398-7.594-8.719-7.117c-4.484,0.398-7.602,4.32-7.203,8.719c0.032,0.331,0.092,0.652,0.164,0.97   c2.79-1.136,5.84-1.766,9.039-1.766C472.407,224.045,472.811,224.056,473.213,224.076z" fill="#5c546a"/><path d="M466.797,297.881c-4.32-1.117-8.641,1.445-9.758,5.766c-1.117,4.234,1.516,8.641,5.758,9.68   c0.719,0.234,1.359,0.32,2,0.32c3.602,0,6.805-2.406,7.758-6.086C473.601,303.326,471.039,298.92,466.797,297.881z" fill="#5c546a"/><path d="M427.601,384.764c-3.445-2.719-8.484-2.164-11.203,1.359c-2.719,3.438-2.156,8.477,1.359,11.203   c1.438,1.195,3.203,1.758,4.883,1.758c2.398,0,4.719-1.039,6.32-3.117C431.68,392.522,431.117,387.482,427.601,384.764z" fill="#5c546a"/><path d="M76.32,412.686c-3.039,3.195-2.805,8.234,0.398,11.281c1.523,1.438,3.523,2.156,5.438,2.156   c2.164,0,4.32-0.883,5.922-2.563c2.961-3.273,2.719-8.32-0.477-11.359C84.398,409.24,79.281,409.404,76.32,412.686z" fill="#5c546a"/><path d="M395.758,409.084c-3.203,3.039-3.281,8.078-0.242,11.281c1.602,1.602,3.68,2.477,5.766,2.477   c2,0,4-0.797,5.516-2.32c3.203-3.039,3.281-8.078,0.242-11.281C403.922,406.045,398.875,405.967,395.758,409.084z" fill="#5c546a"/><path d="M457.758,328.6c-4.078-1.758-8.719,0.242-10.398,4.32c-1.68,4.086,0.242,8.805,4.32,10.484   c1.039,0.398,2.078,0.563,3.039,0.563c3.203,0,6.156-1.844,7.438-4.961C463.836,334.92,461.836,330.201,457.758,328.6z" fill="#5c546a"/><path d="M463.425,270.462c-0.451,0.865-0.759,1.826-0.871,2.865c-0.477,4.32,2.727,8.32,7.125,8.797   c0.242,0.078,0.563,0.078,0.875,0.078c4,0,7.523-3.039,7.922-7.117c0.146-1.33-0.042-2.621-0.491-3.792   c-1.914,0.491-3.919,0.753-5.986,0.753C468.978,272.045,466.089,271.481,463.425,270.462z" fill="#5c546a"/><path d="M444.64,357.725c-3.844-2.242-8.719-0.961-10.883,2.875c-2.242,3.844-0.961,8.727,2.797,10.961   c1.281,0.727,2.727,1.039,4.086,1.039c2.719,0,5.438-1.438,6.875-4C449.758,364.842,448.476,359.881,444.64,357.725z" fill="#5c546a"/><path d="M196.242,467.803c0-0.078,0-0.078,0-0.078c-4.406-0.805-8.563,2-9.445,6.32   c-0.875,4.32,2,8.555,6.32,9.438c0.484,0.078,1.039,0.078,1.523,0.164c3.758,0,7.117-2.641,7.836-6.484   C203.359,472.842,200.555,468.6,196.242,467.803z" fill="#5c546a"/><path d="M165.836,36.123c0.805,0,1.68-0.078,2.563-0.398c4.156-1.441,6.398-5.922,5.039-10.16   c-1.438-4.16-6-6.402-10.156-4.961c-4.164,1.359-6.484,5.922-5.039,10.078C159.359,34.045,162.477,36.123,165.836,36.123z" fill="#5c546a"/><path d="M24.719,161.084c1.039,0.477,2.156,0.719,3.203,0.719c3.117,0,6-1.758,7.359-4.801   c1.758-4-0.086-8.719-4.086-10.559c-4.078-1.762-8.797,0.082-10.555,4.082C18.797,154.604,20.641,159.323,24.719,161.084z" fill="#5c546a"/><path d="M83.758,84.526c1.922,0,3.844-0.641,5.359-2.082c3.281-2.961,3.523-8,0.563-11.281   c-3.039-3.277-8.078-3.52-11.359-0.48c-3.281,2.961-3.523,8-0.484,11.281C79.359,83.643,81.516,84.526,83.758,84.526z" fill="#5c546a"/><path d="M56.477,105.803c1.523,1.281,3.359,1.84,5.125,1.84c2.32,0,4.641-0.961,6.234-2.879   c2.805-3.359,2.32-8.398-1.117-11.281c-3.359-2.801-8.398-2.32-11.203,1.043C52.641,97.963,53.117,103.002,56.477,105.803z" fill="#5c546a"/><path d="M38.719,132.366c1.281,0.797,2.719,1.199,4.156,1.199c2.727,0,5.281-1.359,6.805-3.762   c2.398-3.758,1.195-8.719-2.563-11.039c-3.68-2.32-8.641-1.199-10.961,2.559C33.758,125.084,34.961,130.045,38.719,132.366z" fill="#5c546a"/><path d="M166.398,459.647c-4.156-1.445-8.719,0.797-10.156,4.953c-1.445,4.164,0.719,8.727,4.953,10.242   c0.883,0.242,1.766,0.398,2.563,0.398c3.359,0,6.398-2.078,7.602-5.359C172.797,465.647,170.641,461.162,166.398,459.647z" fill="#5c546a"/><path d="M136.32,48.444c1.195,0,2.398-0.238,3.602-0.879c3.914-1.922,5.516-6.801,3.516-10.723   c-1.922-3.918-6.719-5.52-10.719-3.598v0.078c-3.922,1.922-5.523,6.723-3.523,10.723C130.555,46.842,133.438,48.444,136.32,48.444z   " fill="#5c546a"/><path d="M319.758,38.682c0.961,0.32,1.922,0.48,2.883,0.48c3.195,0,6.234-1.918,7.438-5.117   c1.602-4.16-0.477-8.801-4.563-10.32c-4.156-1.602-8.797,0.48-10.32,4.641C313.601,32.444,315.68,37.084,319.758,38.682z" fill="#5c546a"/><path d="M108.797,64.682c1.523,0,3.125-0.477,4.484-1.438c3.68-2.48,4.555-7.441,2.078-11.121   c-2.484-3.598-7.438-4.559-11.117-2c-3.602,2.48-4.563,7.441-2.086,11.121C103.758,63.483,106.242,64.682,108.797,64.682z" fill="#5c546a"/><path d="M288.242,466.842c-4.32,0.961-7.047,5.203-6.086,9.523c0.805,3.758,4.086,6.32,7.766,6.32   c0.555,0,1.195-0.086,1.758-0.242c4.32-0.961,7.039-5.203,6.078-9.523S292.555,465.881,288.242,466.842z" fill="#5c546a"/><path d="M290.242,29.725c0.633,0.16,1.195,0.16,1.836,0.16c3.602,0,6.883-2.48,7.758-6.16   c0.961-4.32-1.68-8.641-6-9.602s-8.641,1.68-9.594,6C283.281,24.444,285.922,28.682,290.242,29.725z" fill="#5c546a"/><path d="M261.285,162.643c14.947,3.72,28.381,11.267,39.214,21.531c-3.488-0.42-7.031-0.662-10.632-0.662   c-48.601,0-88,39.399-88,88c0,25.158,10.575,47.833,27.501,63.871c-28.588-3.446-52.96-20.588-66.346-44.676   c15.017,27.038,43.858,45.338,76.979,45.338c48.601,0,88-39.399,88-88C328,206.784,299.601,172.162,261.285,162.643z" fill="#708aff"/><path d="M229.367,335.383c-16.926-16.038-27.501-38.713-27.501-63.871c0-48.601,39.399-88,88-88   c3.601,0,7.144,0.242,10.632,0.662c-10.833-10.264-24.267-17.811-39.214-21.531c-0.034-0.008-0.068-0.016-0.102-0.025   c-1.316-0.326-2.643-0.622-3.982-0.887c-0.066-0.013-0.133-0.025-0.2-0.038c-1.316-0.258-2.641-0.488-3.977-0.686   c-0.084-0.012-0.168-0.023-0.252-0.035c-1.328-0.193-2.665-0.359-4.011-0.493c-0.082-0.008-0.165-0.014-0.247-0.022   c-1.357-0.13-2.722-0.233-4.097-0.301c-0.056-0.003-0.112-0.004-0.168-0.006c-1.408-0.067-2.823-0.104-4.248-0.104   c-48.601,0-88,39.399-88,88c0,1.324,0.035,2.64,0.093,3.95c0.005,0.118,0.008,0.237,0.013,0.354c0.06,1.248,0.15,2.487,0.262,3.72   c0.016,0.171,0.029,0.343,0.046,0.515c0.116,1.204,0.258,2.399,0.422,3.588c0.026,0.188,0.052,0.376,0.079,0.564   c0.171,1.184,0.365,2.361,0.583,3.53c0.032,0.173,0.066,0.346,0.1,0.52c0.229,1.187,0.479,2.366,0.754,3.536   c0.031,0.13,0.064,0.259,0.095,0.389c0.292,1.214,0.606,2.42,0.948,3.615c0.013,0.044,0.027,0.088,0.04,0.133   c0.724,2.51,1.556,4.973,2.492,7.385c0.018,0.046,0.034,0.092,0.052,0.137c0.46,1.179,0.946,2.345,1.454,3.498   c0.03,0.069,0.06,0.138,0.09,0.207c0.51,1.148,1.043,2.283,1.6,3.405c0.029,0.059,0.059,0.118,0.088,0.178   c0.569,1.14,1.161,2.267,1.778,3.379c0.011,0.02,0.022,0.039,0.033,0.059C176.408,314.795,200.779,331.937,229.367,335.383z" fill="#3d6edd"/><path d="M119.25,111.722c-1.11-0.134-2.237-0.211-3.383-0.211c-15.464,0-28,12.536-28,28   c0,8.005,3.365,15.22,8.75,20.323c-3.897-0.47-7.548-1.74-10.783-3.64c0.35,0.206,0.704,0.406,1.064,0.596   c3.91,2.075,8.368,3.254,13.102,3.254c15.464,0,28-12.536,28-28c0-6.778-2.409-12.993-6.417-17.837   C120.858,113.331,120.075,112.504,119.25,111.722z" fill="#ffedb9"/><path d="M74.302,143.169c0.085,0.195,0.174,0.388,0.263,0.581c0.095,0.207,0.19,0.413,0.29,0.617   c0.088,0.179,0.181,0.355,0.273,0.532c0.11,0.212,0.218,0.424,0.333,0.633c0.085,0.155,0.176,0.306,0.264,0.459   c0.13,0.226,0.258,0.453,0.394,0.674c0.058,0.095,0.121,0.187,0.18,0.281c0.61,0.967,1.273,1.898,1.994,2.78   c0.003,0.003,0.005,0.007,0.008,0.01c0.224,0.274,0.455,0.541,0.688,0.806c0.039,0.045,0.076,0.092,0.116,0.136   c0.009,0.01,0.018,0.019,0.026,0.028c0.224,0.25,0.454,0.494,0.687,0.735c0.062,0.064,0.122,0.13,0.184,0.193   c0.231,0.236,0.469,0.466,0.708,0.694c0.067,0.064,0.133,0.128,0.2,0.191c0.243,0.227,0.492,0.448,0.743,0.667   c0.066,0.057,0.131,0.115,0.198,0.171c0.258,0.22,0.521,0.435,0.787,0.646c0.062,0.049,0.124,0.098,0.186,0.146   c0.276,0.214,0.555,0.424,0.838,0.628c0.053,0.038,0.106,0.075,0.159,0.113c0.297,0.211,0.599,0.417,0.904,0.616   c0.035,0.023,0.07,0.044,0.104,0.067c0.327,0.211,0.657,0.417,0.993,0.614c0.004,0.002,0.007,0.004,0.011,0.006   c3.235,1.901,6.886,3.17,10.783,3.64c-5.386-5.103-8.75-12.318-8.75-20.323c0-15.464,12.536-28,28-28   c1.146,0,2.273,0.077,3.383,0.211l0,0c0,0,0,0,0,0c-0.311-0.295-0.629-0.583-0.953-0.863c-0.005-0.004-0.01-0.009-0.015-0.013   c-0.319-0.275-0.644-0.543-0.975-0.804c-0.013-0.01-0.025-0.02-0.038-0.03c-0.323-0.254-0.653-0.501-0.988-0.741   c-0.024-0.017-0.047-0.034-0.071-0.051c-0.325-0.232-0.656-0.457-0.991-0.675c-0.036-0.023-0.072-0.046-0.108-0.069   c-0.326-0.209-0.656-0.413-0.99-0.609c-0.05-0.029-0.1-0.057-0.15-0.086c-0.323-0.187-0.65-0.368-0.982-0.542   c-0.067-0.035-0.135-0.069-0.202-0.103c-0.318-0.164-0.638-0.323-0.963-0.474c-0.086-0.04-0.174-0.078-0.26-0.118   c-0.311-0.141-0.623-0.279-0.939-0.409c-0.105-0.043-0.212-0.083-0.318-0.125c-0.302-0.12-0.604-0.237-0.911-0.346   c-0.128-0.046-0.258-0.087-0.387-0.131c-0.29-0.099-0.58-0.196-0.874-0.285c-0.151-0.046-0.304-0.086-0.456-0.13   c-0.277-0.079-0.554-0.158-0.834-0.229c-0.176-0.044-0.355-0.082-0.533-0.123c-0.261-0.06-0.522-0.122-0.786-0.175   c-0.204-0.041-0.411-0.074-0.617-0.11c-0.242-0.043-0.484-0.089-0.728-0.126c-0.237-0.035-0.477-0.061-0.716-0.091   c-0.218-0.027-0.435-0.059-0.654-0.08c-0.288-0.029-0.578-0.046-0.868-0.066c-0.175-0.012-0.349-0.03-0.525-0.039   c-0.469-0.023-0.94-0.036-1.414-0.036c-15.464,0-28,12.536-28,28c0,0.466,0.013,0.929,0.035,1.39   c0.008,0.154,0.022,0.305,0.032,0.458c0.02,0.305,0.04,0.611,0.069,0.914c0.018,0.183,0.043,0.365,0.064,0.547   c0.032,0.269,0.063,0.538,0.102,0.805c0.028,0.193,0.063,0.385,0.095,0.576c0.043,0.253,0.086,0.505,0.135,0.755   c0.039,0.198,0.083,0.394,0.126,0.59c0.053,0.24,0.107,0.48,0.166,0.718c0.05,0.2,0.103,0.399,0.157,0.597   c0.062,0.229,0.126,0.458,0.194,0.685c0.06,0.201,0.123,0.402,0.188,0.602c0.071,0.219,0.145,0.436,0.221,0.653   c0.072,0.203,0.144,0.405,0.22,0.606c0.078,0.208,0.16,0.413,0.244,0.618C74.131,142.763,74.215,142.967,74.302,143.169z" fill="#ffd586"/><path d="M496,248.045c0-7.259-3.227-13.76-8.319-18.161c0.279,0.241,0.552,0.488,0.819,0.741   c-0.951-0.115-1.918-0.181-2.9-0.181c-13.255,0-24,10.745-24,24c0,6.861,2.884,13.045,7.5,17.419   c-3.705-0.447-7.149-1.738-10.137-3.673c1.395,0.904,2.888,1.668,4.462,2.271c2.664,1.02,5.552,1.583,8.574,1.583   c2.067,0,4.072-0.262,5.986-0.753C488.344,268.633,496,259.233,496,248.045z" fill="#ff7400"/><path d="M469.1,271.865c-4.616-4.374-7.5-10.558-7.5-17.419c0-13.255,10.745-24,24-24   c0.982,0,1.948,0.066,2.9,0.181c-0.267-0.253-0.54-0.5-0.819-0.741c-0.003-0.003-0.006-0.005-0.009-0.008   c-0.274-0.237-0.554-0.467-0.838-0.691c-0.01-0.008-0.021-0.016-0.031-0.025c-0.278-0.218-0.561-0.43-0.848-0.636   c-0.02-0.014-0.039-0.028-0.059-0.042c-0.28-0.199-0.563-0.392-0.852-0.579c-0.03-0.02-0.061-0.039-0.092-0.059   c-0.279-0.18-0.563-0.354-0.85-0.522c-0.042-0.025-0.085-0.049-0.128-0.073c-0.277-0.16-0.558-0.316-0.842-0.465   c-0.057-0.03-0.114-0.058-0.171-0.088c-0.273-0.141-0.549-0.277-0.828-0.408c-0.072-0.034-0.146-0.066-0.219-0.099   c-0.267-0.122-0.536-0.24-0.808-0.352c-0.09-0.037-0.181-0.071-0.272-0.107c-0.259-0.103-0.519-0.203-0.783-0.297   c-0.109-0.039-0.22-0.074-0.329-0.111c-0.249-0.085-0.498-0.168-0.751-0.245c-0.086-0.026-0.174-0.05-0.261-0.075   c-0.043-0.012-0.087-0.023-0.13-0.036c-0.238-0.068-0.476-0.136-0.717-0.196c-0.15-0.038-0.302-0.07-0.453-0.104   c-0.225-0.052-0.45-0.105-0.677-0.151c-0.175-0.035-0.353-0.063-0.529-0.094c-0.207-0.037-0.414-0.076-0.623-0.108   c-0.204-0.031-0.411-0.053-0.617-0.078c-0.186-0.023-0.371-0.05-0.559-0.069c-0.249-0.025-0.5-0.04-0.751-0.057   c-0.148-0.01-0.294-0.025-0.442-0.033c-0.402-0.02-0.806-0.031-1.213-0.031c-3.198,0-6.248,0.631-9.039,1.766   C454.187,229.382,448,237.989,448,248.045c0,0.723,0.038,1.436,0.1,2.142c0.006,0.063,0.008,0.128,0.015,0.191   c0.065,0.672,0.162,1.333,0.281,1.988c0.017,0.091,0.031,0.182,0.049,0.273c0.124,0.638,0.275,1.266,0.448,1.884   c0.027,0.096,0.054,0.192,0.082,0.288c0.181,0.615,0.384,1.22,0.612,1.813c0.033,0.086,0.068,0.172,0.102,0.258   c0.239,0.601,0.498,1.192,0.782,1.769c0.03,0.06,0.061,0.119,0.091,0.179c0.302,0.599,0.624,1.185,0.973,1.754   c0.009,0.015,0.02,0.03,0.029,0.045c0.737,1.194,1.576,2.319,2.505,3.362c0.012,0.014,0.024,0.028,0.037,0.042   c0.456,0.51,0.935,0.999,1.433,1.468c0.025,0.024,0.05,0.048,0.076,0.072c0.496,0.464,1.013,0.907,1.547,1.328   c0.026,0.021,0.053,0.042,0.079,0.062c0.543,0.424,1.103,0.825,1.682,1.202c0.014,0.009,0.028,0.018,0.041,0.027   C461.951,270.127,465.395,271.418,469.1,271.865z" fill="#d55a00"/><path d="M237.1,407.864c-3.704-0.447-7.148-1.737-10.135-3.672   C229.952,406.129,233.395,407.418,237.1,407.864z" fill="#ffd042"/><path d="M264,384.045c0-0.294-0.012-0.585-0.022-0.876c-0.004-0.113-0.003-0.227-0.009-0.339   c-0.338-6.767-3.482-12.791-8.289-16.945c0.279,0.241,0.552,0.488,0.819,0.741c-0.951-0.115-1.918-0.181-2.9-0.181   c-13.255,0-24,10.745-24,24c0,6.861,2.884,13.045,7.5,17.419c0.951,0.115,1.918,0.181,2.9,0.181   C253.255,408.045,264,397.3,264,384.045z" fill="#ffd042"/><path d="M229.6,390.445c0-13.255,10.745-24,24-24c0.982,0,1.948,0.066,2.9,0.181   c-0.267-0.253-0.54-0.5-0.819-0.741c-0.003-0.003-0.006-0.005-0.009-0.008c-0.274-0.237-0.554-0.467-0.838-0.691   c-0.01-0.008-0.021-0.016-0.031-0.025c-0.278-0.218-0.561-0.43-0.848-0.636c-0.02-0.014-0.039-0.028-0.059-0.042   c-0.28-0.199-0.563-0.392-0.852-0.579c-0.03-0.02-0.061-0.039-0.092-0.059c-0.279-0.18-0.562-0.354-0.849-0.522   c-0.043-0.025-0.086-0.049-0.129-0.074c-0.277-0.16-0.557-0.315-0.841-0.464c-0.057-0.03-0.115-0.059-0.173-0.088   c-0.273-0.141-0.548-0.277-0.827-0.407c-0.072-0.034-0.146-0.066-0.219-0.099c-0.267-0.122-0.536-0.24-0.808-0.352   c-0.09-0.037-0.182-0.071-0.272-0.107c-0.259-0.103-0.519-0.203-0.782-0.297c-0.109-0.039-0.219-0.074-0.329-0.111   c-0.249-0.085-0.499-0.168-0.751-0.245c-0.129-0.039-0.261-0.074-0.391-0.111c-0.237-0.068-0.475-0.135-0.715-0.196   c-0.15-0.038-0.303-0.07-0.455-0.105c-0.224-0.052-0.448-0.105-0.675-0.15c-0.175-0.035-0.353-0.063-0.53-0.095   c-0.207-0.037-0.413-0.076-0.622-0.107c-0.204-0.031-0.411-0.053-0.617-0.078c-0.186-0.023-0.371-0.05-0.559-0.069   c-0.249-0.025-0.5-0.04-0.751-0.057c-0.148-0.01-0.294-0.025-0.442-0.032c-0.402-0.02-0.806-0.031-1.213-0.031   c-13.255,0-24,10.745-24,24c0,0.723,0.038,1.436,0.1,2.142c0.006,0.064,0.008,0.128,0.015,0.191   c0.065,0.672,0.162,1.333,0.281,1.988c0.017,0.091,0.031,0.182,0.049,0.273c0.124,0.638,0.275,1.266,0.448,1.884   c0.027,0.096,0.054,0.192,0.082,0.288c0.181,0.615,0.384,1.22,0.612,1.813c0.033,0.086,0.068,0.172,0.102,0.258   c0.239,0.601,0.498,1.192,0.782,1.769c0.03,0.06,0.061,0.119,0.091,0.179c0.302,0.598,0.624,1.185,0.973,1.753   c0.01,0.016,0.02,0.031,0.03,0.047c0.737,1.194,1.576,2.318,2.504,3.361c0.013,0.014,0.024,0.028,0.037,0.042   c0.456,0.51,0.935,0.998,1.432,1.467c0.026,0.024,0.051,0.049,0.077,0.073c0.496,0.464,1.012,0.906,1.546,1.326   c0.027,0.021,0.054,0.042,0.081,0.063c0.542,0.423,1.102,0.825,1.68,1.201c0.014,0.009,0.029,0.018,0.043,0.028   c2.987,1.935,6.431,3.226,10.135,3.672c0,0,0,0,0,0h0C232.484,403.49,229.6,397.306,229.6,390.445z" fill="#dbb246"/></g><g transform="matrix(0.09765625 0 0 0.09765625 61.5 237.5)" id="L1_68"><circle cx="256" cy="256" r="112" fill="#ffcf00"/><path d="M256,72c4.422,0,8-3.582,8-8V8c0-4.418-3.578-8-8-8s-8,3.582-8,8v56C248,68.418,251.578,72,256,72z" fill="#ffcf00"/><path d="M256,120c4.422,0,8-3.582,8-8V96c0-4.418-3.578-8-8-8s-8,3.582-8,8v16   C248,116.418,251.578,120,256,120z" fill="#ffcf00"/><path d="M256,440c-4.422,0-8,3.578-8,8v56c0,4.422,3.578,8,8,8s8-3.578,8-8v-56   C264,443.578,260.422,440,256,440z" fill="#ffcf00"/><path d="M256,392c-4.422,0-8,3.578-8,8v16c0,4.422,3.578,8,8,8s8-3.578,8-8v-16   C264,395.578,260.422,392,256,392z" fill="#ffcf00"/><path d="M504,248h-56c-4.422,0-8,3.578-8,8s3.578,8,8,8h56c4.422,0,8-3.578,8-8S508.422,248,504,248z" fill="#ffcf00"/><path d="M400,248c-4.422,0-8,3.578-8,8s3.578,8,8,8h16c4.422,0,8-3.578,8-8s-3.578-8-8-8H400z" fill="#ffcf00"/><path d="M72,256c0-4.422-3.578-8-8-8H8c-4.422,0-8,3.578-8,8s3.578,8,8,8h56C68.422,264,72,260.422,72,256z" fill="#ffcf00"/><path d="M112,248H96c-4.422,0-8,3.578-8,8s3.578,8,8,8h16c4.422,0,8-3.578,8-8S116.422,248,112,248z" fill="#ffcf00"/><path d="M148.523,352.164l-66.18,66.18c-3.125,3.125-3.125,8.188,0,11.313C83.906,431.219,85.953,432,88,432   s4.094-0.781,5.656-2.344l66.18-66.18c3.125-3.125,3.125-8.188,0-11.313S151.648,349.039,148.523,352.164z" fill="#ff9300"/><path d="M357.82,162.176c2.047,0,4.094-0.781,5.656-2.344l66.18-66.176c3.125-3.125,3.125-8.188,0-11.313   s-8.187-3.125-11.312,0l-66.18,66.176c-3.125,3.125-3.125,8.188,0,11.313C353.726,161.395,355.773,162.176,357.82,162.176z" fill="#ff9300"/><path d="M193.5,126.023c1.273,3.078,4.258,4.941,7.391,4.941c1.023,0,2.063-0.199,3.063-0.613   c4.078-1.691,6.016-6.371,4.328-10.453L183.789,60.77c-1.688-4.082-6.383-6-10.453-4.328c-4.078,1.691-6.016,6.371-4.328,10.453   L193.5,126.023z" fill="#ff7400"/><path d="M318.5,385.976c-1.695-4.078-6.383-6-10.453-4.328c-4.078,1.688-6.016,6.367-4.328,10.453   l24.492,59.125c1.273,3.078,4.258,4.938,7.391,4.938c1.023,0,2.063-0.195,3.063-0.609c4.078-1.688,6.016-6.367,4.328-10.453   L318.5,385.976z" fill="#ff7400"/><path d="M363.476,352.164c-3.125-3.125-8.188-3.125-11.313,0s-3.125,8.188,0,11.313l66.18,66.18   c1.563,1.563,3.609,2.344,5.656,2.344c2.047,0,4.094-0.781,5.656-2.344c3.125-3.125,3.125-8.188,0-11.313L363.476,352.164z" fill="#ff9300"/><path d="M148.523,159.832c1.563,1.563,3.609,2.344,5.656,2.344s4.094-0.781,5.656-2.344   c3.125-3.125,3.125-8.188,0-11.313l-66.18-66.176c-3.125-3.125-8.188-3.125-11.313,0s-3.125,8.188,0,11.313L148.523,159.832z" fill="#ff9300"/><path d="M308.047,130.352c1,0.414,2.039,0.613,3.063,0.613c3.133,0,6.117-1.863,7.391-4.941l24.492-59.129   c1.688-4.082-0.25-8.762-4.328-10.453c-4.055-1.676-8.766,0.242-10.453,4.328l-24.492,59.129   C302.031,123.98,303.969,128.66,308.047,130.352z" fill="#ff7400"/><path d="M203.953,381.648c-4.055-1.68-8.766,0.242-10.453,4.328l-24.492,59.125   c-1.688,4.086,0.25,8.766,4.328,10.453c1,0.414,2.039,0.609,3.063,0.609c3.133,0,6.117-1.859,7.391-4.938l24.492-59.125   C209.969,388.015,208.031,383.336,203.953,381.648z" fill="#ff7400"/><path d="M130.352,308.047c-1.688-4.086-6.391-6.016-10.453-4.328l-59.125,24.492   c-4.078,1.688-6.016,6.367-4.328,10.453c1.273,3.078,4.258,4.938,7.391,4.938c1.023,0,2.063-0.195,3.063-0.609l59.125-24.492   C130.102,316.812,132.039,312.133,130.352,308.047z" fill="#ff7400"/><path d="M381.648,203.953c1.273,3.078,4.258,4.938,7.391,4.938c1.023,0,2.063-0.195,3.063-0.609   l59.125-24.492c4.078-1.688,6.016-6.367,4.328-10.453c-1.688-4.078-6.391-6-10.453-4.328L385.976,193.5   C381.898,195.187,379.961,199.867,381.648,203.953z" fill="#ff7400"/><path d="M60.773,183.789l59.125,24.492c1,0.414,2.039,0.609,3.063,0.609c3.133,0,6.117-1.859,7.391-4.938   c1.688-4.086-0.25-8.766-4.328-10.453l-59.125-24.492c-4.063-1.676-8.766,0.25-10.453,4.328   C54.758,177.422,56.695,182.102,60.773,183.789z" fill="#ff7400"/><path d="M451.226,328.211l-59.125-24.492c-4.063-1.688-8.766,0.242-10.453,4.328s0.25,8.766,4.328,10.453   l59.125,24.492c1,0.414,2.039,0.609,3.063,0.609c3.133,0,6.117-1.859,7.391-4.938C457.242,334.578,455.304,329.898,451.226,328.211   z" fill="#ff7400"/></g><g transform="matrix(0.09978632703191383 0.1255376387713603 -0.1255376387713603 0.09978632703191383 174.5923358052983 -55.68293524563818)"><path d="M141.737,409.962l31.514,4.502C178.976,405.761,188.824,400,200,400V120   c0-3.228,0.054-6.418,0.159-9.567c-0.081,0.405-0.134,0.82-0.152,1.243c-2.931,72.392-39.581,134.471-72.008,189.258v93.189   C128,402.085,133.855,408.835,141.737,409.962z" fill="#e3e6e9"/><path d="M173.251,414.464l-31.514-4.502c-7.882-1.126-13.737-7.877-13.737-15.839v-93.189l0,0   c-0.067,0.114-0.136,0.23-0.203,0.344C102.148,344.613,80,382.043,80,416v31.997c0,2.256,0.939,4.316,2.469,5.782   c1.19,1.14,2.737,1.919,4.476,2.151L168,466.736V432C168,425.529,169.936,419.504,173.251,414.464z" fill="#ff4f19"/><path d="M312,400c11.176,0,21.024,5.761,26.749,14.464l31.514-4.502c7.882-1.126,13.737-7.877,13.737-15.839   v-93.189c-32.427-54.787-69.076-116.866-72.008-189.258c-0.017-0.423-0.071-0.838-0.152-1.243c0.106,3.149,0.159,6.339,0.159,9.567   V400z" fill="#e3e6e9"/><path d="M384.203,301.277c-0.067-0.114-0.136-0.23-0.203-0.344l0,0v93.189   c0,7.962-5.855,14.713-13.737,15.839l-31.514,4.502C342.064,419.504,344,425.529,344,432v34.736l81.055-10.807   c1.74-0.232,3.286-1.012,4.476-2.151c1.53-1.465,2.469-3.525,2.469-5.782V416C432,382.043,409.851,344.613,384.203,301.277z" fill="#ff4f19"/><path d="M200,400c5.827,0,11.29,1.572,16,4.304V120v-12.965c0-1.938,0.879-3.809,2.471-5.266   C228.041,93.02,241.722,88,256,88s27.959,5.02,37.529,13.77c1.592,1.457,2.471,3.328,2.471,5.266V120v284.304   c4.71-2.732,10.173-4.304,16-4.304V120c0-3.228-0.054-6.418-0.159-9.567C309.71,46.836,286.415,0,256,0   s-53.71,46.836-55.841,110.433C200.054,113.582,200,116.772,200,120V400z" fill="#e3e6e9"/><path d="M288,128h-64c-5.527,0-8-3.582-8-8v284.304c7.323,4.247,12.821,11.306,14.988,19.696H248v-96   c0-4.418,3.578-8,8-8s8,3.582,8,8v96h17.012c2.167-8.39,7.664-15.449,14.988-19.696V120C296,124.418,293.527,128,288,128z" fill="#d5d9de"/><path d="M281.012,424H264v56h16v-48C280,429.238,280.352,426.558,281.012,424z" fill="#5c546a"/><path d="M230.987,424c0.661,2.558,1.012,5.238,1.012,8v48h16v-56H230.987z" fill="#5c546a"/><path d="M230.987,424c-2.167-8.39-7.664-15.449-14.988-19.696c-4.71-2.732-10.173-4.304-16-4.304   c-11.176,0-21.024,5.761-26.749,14.464C169.936,419.504,168,425.529,168,432v34.736V480h40h16h8v-48   C232,429.238,231.648,426.558,230.987,424z" fill="#888693"/><path d="M264,328c0-4.418-3.578-8-8-8s-8,3.582-8,8v96v56v24c0,4.418,3.578,8,8,8s8-3.582,8-8v-24v-56V328z" fill="#e5001e"/><path d="M224,128h64c5.527,0,8-3.582,8-8v-12.965c0-1.938-0.879-3.809-2.471-5.266   C283.959,93.02,270.277,88,256,88s-27.959,5.02-37.529,13.77c-1.592,1.457-2.471,3.328-2.471,5.266V120   C216,124.418,218.472,128,224,128z" fill="#5c546a"/><path d="M208,480h-40v24c0,4.418,3.578,8,8,8h48c4.422,0,8-3.582,8-8v-24h-8H208z" fill="#5c546a"/><path d="M344,432c0-6.471-1.936-12.496-5.251-17.536C333.024,405.761,323.176,400,312,400   c-5.827,0-11.29,1.572-16,4.304c-7.323,4.247-12.821,11.306-14.988,19.696c-0.661,2.558-1.012,5.238-1.012,8v48h8h16h40v-13.263   V432z" fill="#888693"/><path d="M288,480h-8v24c0,4.418,3.578,8,8,8h48c4.422,0,8-3.582,8-8v-24h-40H288z" fill="#5c546a"/></g></defs><g fi:class="KUsePattern" opacity="0.27"><pattern id="pattern_L1_59" width="350" height="350" patternUnits="userSpaceOnUse"><use xlink:href="#L1_59" x="-350" y="-350"/><use xlink:href="#L1_59" x="0" y="-350"/><use xlink:href="#L1_59" x="350" y="-350"/><use xlink:href="#L1_59" x="-350" y="0"/><use xlink:href="#L1_59" x="0" y="0"/><use xlink:href="#L1_59" x="350" y="0"/><use xlink:href="#L1_59" x="-350" y="350"/><use xlink:href="#L1_59" x="0" y="350"/><use xlink:href="#L1_59" x="350" y="350"/></pattern><rect x="0" y="0" width="100%" height="100%" fill="url(#pattern_L1_59)"/></g><g fi:class="KUsePattern" opacity="0.27"><pattern id="pattern_L1_60" width="350" height="350" patternUnits="userSpaceOnUse"><use xlink:href="#L1_60" x="-350" y="-350"/><use xlink:href="#L1_60" x="0" y="-350"/><use xlink:href="#L1_60" x="350" y="-350"/><use xlink:href="#L1_60" x="-350" y="0"/><use xlink:href="#L1_60" x="0" y="0"/><use xlink:href="#L1_60" x="350" y="0"/><use xlink:href="#L1_60" x="-350" y="350"/><use xlink:href="#L1_60" x="0" y="350"/><use xlink:href="#L1_60" x="350" y="350"/></pattern><rect x="0" y="0" width="100%" height="100%" fill="url(#pattern_L1_60)"/></g><g fi:class="KUsePattern" opacity="0.27"><pattern id="pattern_L1_62" width="350" height="350" patternUnits="userSpaceOnUse"><use xlink:href="#L1_62" x="-350" y="-350"/><use xlink:href="#L1_62" x="0" y="-350"/><use xlink:href="#L1_62" x="350" y="-350"/><use xlink:href="#L1_62" x="-350" y="0"/><use xlink:href="#L1_62" x="0" y="0"/><use xlink:href="#L1_62" x="350" y="0"/><use xlink:href="#L1_62" x="-350" y="350"/><use xlink:href="#L1_62" x="0" y="350"/><use xlink:href="#L1_62" x="350" y="350"/></pattern><rect x="0" y="0" width="100%" height="100%" fill="url(#pattern_L1_62)"/></g><g fi:class="KUsePattern" opacity="0.27"><pattern id="pattern_L1_63" width="350" height="350" patternUnits="userSpaceOnUse"><use xlink:href="#L1_63" x="-350" y="-350"/><use xlink:href="#L1_63" x="0" y="-350"/><use xlink:href="#L1_63" x="350" y="-350"/><use xlink:href="#L1_63" x="-350" y="0"/><use xlink:href="#L1_63" x="0" y="0"/><use xlink:href="#L1_63" x="350" y="0"/><use xlink:href="#L1_63" x="-350" y="350"/><use xlink:href="#L1_63" x="0" y="350"/><use xlink:href="#L1_63" x="350" y="350"/></pattern><rect x="0" y="0" width="100%" height="100%" fill="url(#pattern_L1_63)"/></g><g fi:class="KUsePattern" opacity="0.27"><pattern id="pattern_L1_64" width="350" height="350" patternUnits="userSpaceOnUse"><use xlink:href="#L1_64" x="-350" y="-350"/><use xlink:href="#L1_64" x="0" y="-350"/><use xlink:href="#L1_64" x="350" y="-350"/><use xlink:href="#L1_64" x="-350" y="0"/><use xlink:href="#L1_64" x="0" y="0"/><use xlink:href="#L1_64" x="350" y="0"/><use xlink:href="#L1_64" x="-350" y="350"/><use xlink:href="#L1_64" x="0" y="350"/><use xlink:href="#L1_64" x="350" y="350"/></pattern><rect x="0" y="0" width="100%" height="100%" fill="url(#pattern_L1_64)"/></g><g fi:class="KUsePattern" opacity="0.27"><pattern id="pattern_L1_65" width="350" height="350" patternUnits="userSpaceOnUse"><use xlink:href="#L1_65" x="-350" y="-350"/><use xlink:href="#L1_65" x="0" y="-350"/><use xlink:href="#L1_65" x="350" y="-350"/><use xlink:href="#L1_65" x="-350" y="0"/><use xlink:href="#L1_65" x="0" y="0"/><use xlink:href="#L1_65" x="350" y="0"/><use xlink:href="#L1_65" x="-350" y="350"/><use xlink:href="#L1_65" x="0" y="350"/><use xlink:href="#L1_65" x="350" y="350"/></pattern><rect x="0" y="0" width="100%" height="100%" fill="url(#pattern_L1_65)"/></g><g fi:class="KUsePattern" opacity="0.25"><pattern id="pattern_L1_66" width="350" height="350" patternUnits="userSpaceOnUse"><use xlink:href="#L1_66" x="-350" y="-350"/><use xlink:href="#L1_66" x="0" y="-350"/><use xlink:href="#L1_66" x="350" y="-350"/><use xlink:href="#L1_66" x="-350" y="0"/><use xlink:href="#L1_66" x="0" y="0"/><use xlink:href="#L1_66" x="350" y="0"/><use xlink:href="#L1_66" x="-350" y="350"/><use xlink:href="#L1_66" x="0" y="350"/><use xlink:href="#L1_66" x="350" y="350"/></pattern><rect x="0" y="0" width="100%" height="100%" fill="url(#pattern_L1_66)"/></g><g fi:class="KUsePattern" opacity="0.27"><pattern id="pattern_L1_67" width="350" height="350" patternUnits="userSpaceOnUse"><use xlink:href="#L1_67" x="-350" y="-350"/><use xlink:href="#L1_67" x="0" y="-350"/><use xlink:href="#L1_67" x="350" y="-350"/><use xlink:href="#L1_67" x="-350" y="0"/><use xlink:href="#L1_67" x="0" y="0"/><use xlink:href="#L1_67" x="350" y="0"/><use xlink:href="#L1_67" x="-350" y="350"/><use xlink:href="#L1_67" x="0" y="350"/><use xlink:href="#L1_67" x="350" y="350"/></pattern><rect x="0" y="0" width="100%" height="100%" fill="url(#pattern_L1_67)"/></g><g fi:class="KUsePattern" transform="matrix(1 0 0 1 20 20)" opacity="0.26"><pattern id="pattern_UNKNOWN" width="350" height="350" patternUnits="userSpaceOnUse"><use xlink:href="#UNKNOWN" x="-350" y="-350"/><use xlink:href="#UNKNOWN" x="0" y="-350"/><use xlink:href="#UNKNOWN" x="350" y="-350"/><use xlink:href="#UNKNOWN" x="-350" y="0"/><use xlink:href="#UNKNOWN" x="0" y="0"/><use xlink:href="#UNKNOWN" x="350" y="0"/><use xlink:href="#UNKNOWN" x="-350" y="350"/><use xlink:href="#UNKNOWN" x="0" y="350"/><use xlink:href="#UNKNOWN" x="350" y="350"/></pattern><rect x="0" y="0" width="100%" height="100%" fill="url(#pattern_UNKNOWN)"/></g><g fi:class="KUsePattern" opacity="0.2"><pattern id="pattern_L1_68" width="350" height="350" patternUnits="userSpaceOnUse"><use xlink:href="#L1_68" x="-350" y="-350"/><use xlink:href="#L1_68" x="0" y="-350"/><use xlink:href="#L1_68" x="350" y="-350"/><use xlink:href="#L1_68" x="-350" y="0"/><use xlink:href="#L1_68" x="0" y="0"/><use xlink:href="#L1_68" x="350" y="0"/><use xlink:href="#L1_68" x="-350" y="350"/><use xlink:href="#L1_68" x="0" y="350"/><use xlink:href="#L1_68" x="350" y="350"/></pattern><rect x="0" y="0" width="100%" height="100%" fill="url(#pattern_L1_68)"/></g></svg>